<?xml version="1.0" encoding="UTF-8" standalone="no"?>
<!DOCTYPE svg PUBLIC "-//W3C//DTD SVG 1.1//EN" "http://www.w3.org/Graphics/SVG/1.1/DTD/svg11.dtd">
<svg width="100%" height="100%" viewBox="0 0 386 87" version="1.1" xmlns="http://www.w3.org/2000/svg" xmlns:xlink="http://www.w3.org/1999/xlink" xml:space="preserve" xmlns:serif="http://www.serif.com/" style="fill-rule:evenodd;clip-rule:evenodd;stroke-linejoin:round;stroke-miterlimit:2;">
    <g transform="matrix(1,0,0,1,-281.905,-87.7512)">
        <g>
            <g transform="matrix(1,0,0,1,-35.4883,8.38979)">
                <path d="M441.528,139.553C438.285,139.553 435.278,138.988 432.506,137.859C429.735,136.73 427.313,135.139 425.24,133.087C423.167,131.034 421.555,128.643 420.406,125.912C419.256,123.182 418.681,120.237 418.681,117.076C418.681,113.914 419.256,110.969 420.406,108.239C421.555,105.508 423.156,103.138 425.209,101.126C427.262,99.114 429.674,97.544 432.445,96.415C435.216,95.286 438.223,94.722 441.467,94.722C444.915,94.722 447.984,95.276 450.673,96.384C453.362,97.493 455.712,99.012 457.724,100.941L451.258,107.469C450.108,106.237 448.723,105.272 447.101,104.575C445.48,103.877 443.601,103.528 441.467,103.528C439.578,103.528 437.844,103.846 436.263,104.482C434.682,105.118 433.328,106.032 432.199,107.223C431.07,108.413 430.187,109.85 429.551,111.533C428.914,113.216 428.596,115.064 428.596,117.076C428.596,119.128 428.914,120.996 429.551,122.679C430.187,124.363 431.07,125.8 432.199,126.99C433.328,128.181 434.682,129.104 436.263,129.761C437.844,130.418 439.578,130.747 441.467,130.747C443.683,130.747 445.613,130.398 447.255,129.7C448.897,129.002 450.314,128.037 451.504,126.805L458.032,133.333C455.938,135.262 453.547,136.782 450.858,137.89C448.169,138.998 445.059,139.553 441.528,139.553Z" style="fill:rgb(88,0,255);fill-rule:nonzero;"/>
                <g transform="matrix(1,0,0,1,-1,0)">
                    <path d="M474.967,139.553C471.888,139.553 469.106,138.865 466.622,137.49C464.139,136.114 462.178,134.236 460.741,131.855C459.305,129.474 458.586,126.805 458.586,123.849C458.586,120.894 459.305,118.246 460.741,115.905C462.178,113.565 464.128,111.708 466.592,110.332C469.055,108.957 471.847,108.269 474.967,108.269C478.087,108.269 480.879,108.947 483.342,110.302C485.805,111.656 487.755,113.514 489.192,115.875C490.629,118.235 491.347,120.894 491.347,123.849C491.347,126.805 490.629,129.474 489.192,131.855C487.755,134.236 485.805,136.114 483.342,137.49C480.879,138.865 478.087,139.553 474.967,139.553ZM474.967,130.993C476.322,130.993 477.512,130.695 478.538,130.1C479.565,129.505 480.355,128.663 480.909,127.575C481.464,126.487 481.741,125.245 481.741,123.849C481.741,122.454 481.453,121.232 480.879,120.185C480.304,119.138 479.513,118.317 478.508,117.722C477.502,117.127 476.322,116.829 474.967,116.829C473.653,116.829 472.483,117.127 471.457,117.722C470.43,118.317 469.63,119.149 469.055,120.216C468.48,121.284 468.193,122.515 468.193,123.911C468.193,125.266 468.48,126.487 469.055,127.575C469.63,128.663 470.43,129.505 471.457,130.1C472.483,130.695 473.653,130.993 474.967,130.993Z" style="fill:rgb(88,0,255);fill-rule:nonzero;"/>
                </g>
                <g transform="matrix(1,0,0,1,-1,0)">
                    <path d="M515.364,110.87L515.364,94.167L524.786,94.167L524.786,138.875L515.549,138.875L515.549,136.661C514.834,137.263 514.033,137.786 513.147,138.229C511.464,139.07 509.596,139.491 507.543,139.491C504.71,139.491 502.196,138.814 500,137.459C497.803,136.104 496.079,134.257 494.827,131.917C493.575,129.576 492.948,126.908 492.948,123.911C492.948,120.914 493.575,118.246 494.827,115.905C496.079,113.565 497.803,111.718 500,110.363C502.196,109.008 504.71,108.331 507.543,108.331C509.596,108.331 511.454,108.721 513.116,109.501C513.935,109.885 514.685,110.342 515.364,110.87ZM509.206,130.993C510.561,130.993 511.731,130.695 512.716,130.1C513.701,129.505 514.481,128.673 515.056,127.606C515.631,126.538 515.918,125.307 515.918,123.911C515.918,122.515 515.641,121.294 515.087,120.247C514.533,119.2 513.753,118.369 512.747,117.753C511.741,117.137 510.581,116.829 509.267,116.829C507.954,116.829 506.794,117.137 505.788,117.753C504.782,118.369 503.982,119.21 503.386,120.278C502.791,121.345 502.494,122.556 502.494,123.911C502.494,125.266 502.781,126.477 503.356,127.544C503.93,128.612 504.731,129.453 505.757,130.069C506.784,130.685 507.933,130.993 509.206,130.993Z" style="fill:rgb(88,0,255);fill-rule:nonzero;"/>
                </g>
                <g transform="matrix(1,0,0,1,-2,0)">
                    <path d="M537.527,127.041C537.669,127.514 537.845,127.959 538.057,128.376C538.693,129.628 539.596,130.593 540.766,131.27C541.936,131.947 543.322,132.286 544.923,132.286C546.401,132.286 547.735,132.029 548.926,131.516C550.116,131.003 551.163,130.233 552.066,129.207L557.239,134.38C555.761,136.104 553.975,137.397 551.882,138.259C549.788,139.122 547.489,139.553 544.985,139.553C541.741,139.553 538.857,138.886 536.332,137.551C533.808,136.217 531.827,134.359 530.39,131.978C528.953,129.597 528.235,126.908 528.235,123.911C528.235,120.914 528.943,118.235 530.359,115.875C531.775,113.514 533.695,111.656 536.117,110.302C538.539,108.947 541.269,108.269 544.307,108.269C547.263,108.269 549.87,108.906 552.128,110.178C554.386,111.451 556.162,113.216 557.455,115.474C558.748,117.732 559.395,120.319 559.395,123.234C559.395,123.767 559.364,124.332 559.302,124.927C559.241,125.522 559.128,126.21 558.964,126.99L537.527,127.041ZM550.597,120.536L537.528,120.573C537.655,120.141 537.811,119.735 537.995,119.354C538.59,118.122 539.432,117.168 540.52,116.49C541.608,115.813 542.891,115.474 544.369,115.474C545.765,115.474 546.945,115.772 547.91,116.367C548.874,116.963 549.603,117.825 550.096,118.954C550.303,119.429 550.47,119.956 550.597,120.536Z" style="fill:rgb(88,0,255);"/>
                </g>
                <g transform="matrix(1,0,0,1,-2,0)">
                    <path d="M576.329,139.491C572.963,139.491 570.089,138.875 567.708,137.644C565.327,136.412 563.213,134.626 561.365,132.286L565.306,128.345C566.661,130.233 568.221,131.66 569.987,132.625C571.752,133.59 573.928,134.072 576.514,134.072C579.06,134.072 581.102,133.518 582.642,132.409C584.181,131.301 584.951,129.782 584.951,127.852C584.951,126.251 584.581,124.958 583.842,123.973C583.103,122.987 582.108,122.176 580.856,121.54C579.604,120.904 578.238,120.329 576.761,119.816C575.283,119.303 573.805,118.748 572.327,118.153C570.849,117.558 569.494,116.819 568.262,115.936C567.031,115.054 566.035,113.894 565.276,112.457C564.516,111.02 564.136,109.214 564.136,107.038C564.136,104.616 564.721,102.553 565.891,100.849C567.061,99.145 568.663,97.831 570.695,96.908C572.727,95.984 575.016,95.522 577.561,95.522C580.353,95.522 582.857,96.066 585.074,97.154C587.291,98.242 589.097,99.669 590.493,101.434L586.552,105.375C585.279,103.897 583.914,102.789 582.457,102.05C580.999,101.311 579.326,100.941 577.438,100.941C575.139,100.941 573.312,101.444 571.957,102.45C570.602,103.456 569.925,104.862 569.925,106.668C569.925,108.105 570.305,109.265 571.064,110.148C571.824,111.03 572.819,111.78 574.051,112.395C575.283,113.011 576.648,113.576 578.146,114.089C579.645,114.602 581.133,115.166 582.611,115.782C584.089,116.398 585.443,117.178 586.675,118.122C587.907,119.067 588.902,120.288 589.662,121.786C590.421,123.285 590.801,125.163 590.801,127.421C590.801,131.198 589.498,134.154 586.891,136.289C584.284,138.424 580.763,139.491 576.329,139.491Z" style="fill:rgb(37,37,37);fill-rule:nonzero;"/>
                </g>
                <g transform="matrix(1,0,0,1,-4,0)">
                    <path d="M601.947,113.652C602.979,112.295 604.283,111.209 605.858,110.394C607.644,109.47 609.624,109.008 611.8,109.008C614.469,109.008 616.881,109.686 619.036,111.041C621.191,112.395 622.885,114.222 624.117,116.521C625.348,118.82 625.964,121.407 625.964,124.281C625.964,127.154 625.348,129.741 624.117,132.04C622.885,134.339 621.191,136.155 619.036,137.49C616.881,138.824 614.469,139.491 611.8,139.491C609.583,139.491 607.582,139.029 605.796,138.105C604.241,137.301 602.958,136.224 601.947,134.874L601.947,151.13L596.405,151.13L596.405,109.624L601.947,109.624L601.947,113.652ZM610.877,134.257C612.724,134.257 614.346,133.826 615.741,132.963C617.137,132.101 618.246,130.921 619.067,129.423C619.888,127.924 620.298,126.19 620.298,124.219C620.298,122.289 619.888,120.565 619.067,119.046C618.246,117.527 617.137,116.347 615.741,115.505C614.346,114.664 612.744,114.243 610.938,114.243C609.091,114.243 607.469,114.664 606.073,115.505C604.677,116.347 603.589,117.527 602.809,119.046C602.029,120.565 601.639,122.31 601.639,124.281C601.639,126.21 602.019,127.924 602.779,129.423C603.538,130.921 604.626,132.101 606.042,132.963C607.459,133.826 609.07,134.257 610.877,134.257Z" style="fill:rgb(37,37,37);fill-rule:nonzero;"/>
                </g>
                <g transform="matrix(1,0,0,1,-7,0)">
                    <path d="M636.556,113.024C636.711,112.786 636.876,112.556 637.049,112.334C638.773,110.117 641.257,109.008 644.5,109.008C645.978,109.008 647.312,109.265 648.503,109.778C649.693,110.291 650.802,111.143 651.828,112.334L648.195,116.09C647.579,115.433 646.902,114.961 646.163,114.674C645.424,114.386 644.561,114.243 643.576,114.243C641.523,114.243 639.84,114.9 638.527,116.213C637.213,117.527 636.556,119.518 636.556,122.187L636.556,138.875L631.014,138.875L631.014,109.624L636.556,109.624L636.556,113.024Z" style="fill:rgb(37,37,37);fill-rule:nonzero;"/>
                </g>
                <g transform="matrix(1,0,0,1,-7,0)">
                    <path d="M654.538,138.875L654.538,109.624L660.08,109.624L660.08,138.875L654.538,138.875ZM657.309,103.774C656.282,103.774 655.441,103.435 654.784,102.758C654.127,102.08 653.799,101.229 653.799,100.202C653.799,99.217 654.127,98.386 654.784,97.708C655.441,97.031 656.282,96.692 657.309,96.692C658.335,96.692 659.177,97.031 659.834,97.708C660.49,98.386 660.819,99.217 660.819,100.202C660.819,101.229 660.49,102.08 659.834,102.758C659.177,103.435 658.335,103.774 657.309,103.774Z" style="fill:rgb(37,37,37);fill-rule:nonzero;"/>
                </g>
                <g transform="matrix(1,0,0,1,-11,0)">
                    <path d="M672.581,113.402C673.468,112.236 674.577,111.275 675.906,110.517C677.672,109.511 679.663,109.008 681.88,109.008C684.097,109.008 686.057,109.563 687.761,110.671C689.464,111.78 690.809,113.227 691.794,115.013C692.78,116.798 693.272,118.697 693.272,120.709L693.272,138.875L687.73,138.875L687.73,121.817C687.73,119.6 687.032,117.773 685.636,116.337C684.24,114.9 682.434,114.181 680.217,114.181C678.739,114.181 677.425,114.51 676.276,115.166C675.126,115.823 674.223,116.727 673.566,117.876C672.909,119.026 672.581,120.339 672.581,121.817L672.581,138.875L667.039,138.875L667.039,109.624L672.581,109.624L672.581,113.402Z" style="fill:rgb(37,37,37);fill-rule:nonzero;"/>
                </g>
                <g transform="matrix(1,0,0,1,-14,0)">
                    <path d="M709.222,109.624L716.427,109.624L716.427,114.674L709.222,114.674L709.222,138.875L703.679,138.875L703.679,114.674L696.474,114.674L696.474,109.624L703.679,109.624L703.679,97.37L709.222,97.37L709.222,109.624Z" style="fill:rgb(37,37,37);fill-rule:nonzero;"/>
                </g>
            </g>
            <path d="M368.479,104.208C368.479,99.843 366.746,95.657 363.659,92.571C360.573,89.485 356.388,87.751 352.023,87.751L298.361,87.751C293.997,87.751 289.811,89.485 286.725,92.571C283.639,95.657 281.905,99.843 281.905,104.208L281.905,157.869C281.905,162.234 283.639,166.419 286.725,169.506C289.811,172.592 293.997,174.326 298.361,174.326L352.023,174.326C356.388,174.326 360.573,172.592 363.659,169.506C366.746,166.419 368.479,162.234 368.479,157.869L368.479,104.208ZM352.471,130.868L336.111,114.604L319.751,130.964L330.583,141.795L319.561,152.798L325.051,158.288L341.506,141.833L330.59,130.917L336.04,125.466L346.957,136.382L352.471,130.868ZM334.873,113.366L325.286,103.779L297.914,131.151L318.323,151.56L323.845,146.038L308.832,131.025L325.239,114.617L329.43,118.808L334.873,113.366Z" style="fill:rgb(88,0,255);"/>
        </g>
    </g>
</svg>
