<svg width="1200" height="394" viewBox="0 0 1200 394" fill="none" xmlns="http://www.w3.org/2000/svg">
<mask id="mask0_50_712" style="mask-type:alpha" maskUnits="userSpaceOnUse" x="0" y="0" width="1200" height="394">
<rect width="1200" height="394" rx="10" fill="#F5F5F5"/>
</mask>
<g mask="url(#mask0_50_712)">
<rect x="-6" y="-367.467" width="1207" height="1207" fill="#F5F5F5"/>
<path d="M2.51874 399.716C6.33018 318.6 59.068 259.46 101.447 211.94L104.457 208.569C109.373 203.495 120.714 189.922 119.823 173.526C119.281 163.547 114.239 154.513 104.843 146.683C99.2075 141.989 93.9959 137.602 89.0392 133.428C67.1174 114.976 49.8036 100.4 22.9224 82.1209C13.1028 75.4458 3.43606 69.1258 -6 63.1871V64.1208C3.28854 69.9753 12.8024 76.2006 22.4637 82.7705C49.3128 101.026 66.6104 115.588 88.5135 134.028C93.4729 138.202 98.6844 142.591 104.32 147.286C113.544 154.971 118.49 163.813 119.018 173.568C119.893 189.659 108.719 203.025 103.861 208.035L100.838 211.425C58.3787 259.032 5.53892 318.287 1.71407 399.682C1.30637 408.35 -2.13224 413.653 -6 415.454V416.393C-1.81573 414.705 2.06544 409.334 2.51874 399.716Z" fill="#E0E0E0"/>
<path d="M21.2728 400.565C24.7839 325.869 75.1292 269.418 115.582 224.057L118.605 220.667C127.1 211.136 133.982 202.691 139.06 195.566C145.352 186.737 157.066 170.304 129.404 144.117C99.5776 115.875 67.3507 89.9269 33.6218 66.9929C19.8647 57.6404 6.6279 49.211 -6 41.6417V42.5623C6.48574 50.0605 19.5696 58.4005 33.1631 67.6399C66.8572 90.5503 99.0492 116.472 128.846 144.685C156.014 170.404 144.556 186.479 138.4 195.113C133.339 202.215 126.475 210.639 118.002 220.149L114.976 223.542C74.4398 268.992 23.9926 325.559 20.4682 400.529C18.832 435.301 12.5395 455.534 0.657276 464.208C-1.69503 465.922 -3.92128 466.856 -6 467.08V467.871C-3.73889 467.656 -1.39999 466.69 1.13739 464.839C13.2262 456.018 19.6259 435.593 21.2728 400.565Z" fill="#E0E0E0"/>
<path d="M348.659 -133.699C343.448 -153.882 301.391 -159.281 252.692 -165.53C240.66 -167.074 228.217 -168.671 216.131 -170.541C162.739 -178.804 113.863 -205.086 66.5943 -230.503C42.9237 -243.23 18.7435 -256.228 -6 -266.916V-264.91C18.4136 -254.311 42.3015 -241.465 65.6931 -228.888C113.099 -203.395 162.122 -177.034 215.839 -168.723C227.949 -166.848 240.402 -165.249 252.448 -163.703C298.472 -157.798 341.938 -152.22 346.838 -133.246C350.658 -118.463 331.021 -96.0364 286.807 -64.6835C224.776 -20.6932 172.722 -0.205078 122.996 -0.205078C94.7389 -0.207733 66.7204 -7.08533 39.7158 -20.6512C22.9117 -29.0936 8.11922 -39.364 -6 -49.7264V-47.4277C7.84563 -37.2994 22.3699 -27.2973 38.8602 -19.0126C66.133 -5.31265 94.4385 1.63333 122.996 1.63333H123.001C173.14 1.63333 225.543 -18.9653 287.91 -63.1923C333.441 -95.4789 352.742 -117.882 348.659 -133.699Z" fill="#E0E0E0"/>
<path d="M0.955002 281.442C8.18359 268.973 17.5526 257.667 26.6158 246.731C39.6863 230.956 53.2047 214.647 60.4789 194.606C73.3053 159.268 48.1621 142.941 21.5437 125.656C19.0895 124.062 16.6192 122.458 14.1381 120.812C9.75269 117.903 5.60866 115.154 1.529 112.382C-0.477305 111.017 -2.94763 109.271 -6 107.093V108.066C-3.17294 110.084 -0.831358 111.738 1.07034 113.029C5.15536 115.807 9.29939 118.555 13.7143 121.482C16.1712 123.113 18.6416 124.717 21.1012 126.314C47.4486 143.425 72.337 159.587 59.7198 194.343C52.4912 214.255 39.0184 230.511 25.9909 246.234C16.9089 257.193 7.5184 268.526 0.254942 281.05C-1.91766 284.801 -3.90518 289.677 -6 294.845V296.975C-5.78274 296.439 -5.5628 295.902 -5.34822 295.371C-3.22658 290.137 -1.22296 285.198 0.955002 281.442Z" fill="#E0E0E0"/>
<path d="M66.4871 223.539C67.6887 222.137 68.9064 220.733 70.1322 219.318C87.3977 199.403 105.251 178.81 84.9595 154.184C69.2658 135.138 45.5765 119.431 24.6766 105.576C20.3448 102.704 16.2544 99.9896 12.2257 97.2517C9.52202 95.4133 5.8581 92.7911 1.61751 89.756C-0.71334 88.0886 -3.27486 86.2554 -6 84.3197V85.2928C-3.45457 87.1049 -1.0513 88.8223 1.14276 90.3925C5.38872 93.4302 9.05531 96.055 11.767 97.8987C15.7984 100.642 19.8942 103.356 24.226 106.228C45.0776 120.054 68.716 135.724 84.3346 154.679C104.204 178.797 86.5715 199.137 69.5206 218.805C68.2922 220.223 67.0718 221.63 65.8728 223.034C50.8792 240.556 31.7255 264.018 16.5763 290.148C7.38161 306.015 -0.192989 322.682 -6 339.785V342.376C-0.115205 324.502 7.68738 307.08 17.2763 290.54C32.3933 264.465 51.5176 241.034 66.4871 223.539Z" fill="#E0E0E0"/>
<path d="M268.424 244.219C271.406 244.219 273.882 245.426 275.778 247.814C281.958 255.573 280.746 273.618 278.723 281.555C268.88 320.162 247.77 333.878 215.809 354.647C207.824 359.834 200.091 365.804 192.611 371.574C183.512 378.594 174.103 385.853 164.225 391.718C158.208 395.29 153.077 396.781 149.901 395.873C148.491 395.474 147.482 394.622 146.905 393.333C145.535 390.266 146.664 384.89 150.081 378.199C159.254 360.241 174.642 344.998 189.523 330.256C192.055 327.747 194.558 325.27 196.993 322.811C215.09 304.542 231.176 287.891 244.782 269.092C245.896 267.55 247.167 265.483 248.516 263.295C253.363 255.415 260.001 244.627 267.841 244.232C268.037 244.224 268.23 244.219 268.424 244.219ZM247.827 262.887C246.486 265.062 245.222 267.119 244.123 268.634C230.551 287.386 214.489 304.016 196.417 322.261C193.984 324.717 191.484 327.195 188.952 329.701C174.025 344.485 158.592 359.773 149.362 377.844C145.782 384.851 144.679 390.314 146.168 393.648C146.846 395.161 148.027 396.165 149.679 396.631C150.36 396.826 151.125 396.923 151.951 396.923C155.263 396.923 159.651 395.355 164.643 392.391C174.562 386.503 183.993 379.228 193.107 372.192C200.577 366.433 208.299 360.473 216.26 355.302C248.371 334.433 269.588 320.651 279.504 281.745C281.558 273.681 282.765 255.302 276.414 247.328C274.225 244.58 271.358 243.288 267.799 243.446C259.535 243.859 252.767 254.855 247.827 262.887Z" fill="#E0E0E0"/>
<path d="M40.2952 401.425C43.5004 333.254 91.413 279.525 129.914 236.355L132.947 232.952C178.73 181.563 176.871 163.618 155.392 142.836C131.839 120.051 94.7148 85.8055 44.4714 51.6464C27.3239 39.9873 10.3616 29.333 -6 19.8463V21.3718C10.1175 30.74 26.8197 41.2471 43.7069 52.7273C93.8645 86.8312 130.933 121.022 154.448 143.772C175.31 163.955 177.011 181.495 131.936 232.089L128.902 235.49C90.2676 278.815 42.1834 332.734 38.9567 401.362C35.9258 465.783 11.1823 484.696 -6 490.006V491.384C11.582 486.126 37.2052 467.119 40.2952 401.425Z" fill="#E0E0E0"/>
<path d="M286.596 228.123C297.901 242.323 300.152 272.337 296.678 285.958C285.091 331.4 259.03 348.333 226.023 369.783C224.376 370.851 222.705 371.929 221.021 373.018C200.885 386.019 178.062 400.757 165.043 420.891C158.16 431.534 155.489 443.727 152.903 455.518C150.379 467.038 147.769 478.949 141.198 489.133C136.509 496.402 131.064 503.832 126.226 503.832C122.529 503.832 119.134 499.445 115.845 490.424C114.815 487.597 114.367 484.78 114.472 481.808C114.781 473.042 120.005 464.713 125.059 456.662C129.425 449.7 133.551 443.125 134.726 436.305C136.592 425.462 134.259 415.139 132.003 405.155C129.208 392.781 126.566 381.09 131.196 368.421C136.748 353.235 155.239 336.429 170.099 322.924C175.152 318.334 179.921 314 183.732 310.152C198.294 295.458 213.35 280.259 226.704 263.348C229.142 260.26 231.889 255.994 234.799 251.476C242.942 238.841 253.073 223.116 264.314 220.396C266.35 219.902 268.335 219.654 270.218 219.654C276.61 219.654 282.119 222.503 286.596 228.123ZM263.993 219.118C252.228 221.966 241.937 237.941 233.667 250.773C230.773 255.263 228.04 259.505 225.642 262.54C212.333 279.396 197.304 294.566 182.769 309.237C178.985 313.058 174.227 317.385 169.187 321.961C154.22 335.561 135.595 352.488 129.935 367.979C125.174 381.006 127.98 393.428 130.694 405.439C132.92 415.299 135.224 425.496 133.403 436.082C132.271 442.654 128.213 449.122 123.916 455.97C118.772 464.171 113.453 472.65 113.131 481.763C113.024 484.859 113.512 487.925 114.585 490.866C118.136 500.61 121.835 505.147 126.226 505.147C130.649 505.147 135.316 500.713 142.332 489.837C149.03 479.457 151.666 467.429 154.215 455.794C156.776 444.114 159.421 432.039 166.175 421.595C179.041 401.699 201.735 387.047 221.758 374.118C223.445 373.029 225.116 371.948 226.774 370.872C260.012 349.274 286.266 332.213 297.979 286.276C301.077 274.118 300.264 243.154 287.652 227.316C281.526 219.62 273.48 216.822 263.993 219.118Z" fill="#E0E0E0"/>
<path d="M278.611 192.065C282.537 198.112 287.518 201.828 292.791 205.76C298.491 210.01 304.384 214.407 308.995 222.114C319.555 239.766 327.701 271.611 322.438 292.27C308.351 347.525 275.486 368.879 240.692 391.484C200.743 417.44 159.431 444.282 144.269 525.059C140.61 544.553 134.556 554.858 126.767 554.858C114.577 554.858 99.7627 529.988 95.1519 508.595C87.1589 471.527 89.7982 427.337 103 377.25C111.752 344.035 136.823 319.807 161.068 296.376C173.674 284.193 186.71 271.593 197.213 257.932C199.759 254.618 203.811 250.168 208.5 245.013C223.942 228.047 245.091 204.81 241.397 190.926C240.07 185.94 236.915 180.972 233.573 175.714C230.154 170.33 226.618 164.76 225.352 159.329C223.751 152.441 226.246 151.223 228.445 150.153C229.66 149.558 230.918 148.945 231.224 147.499C231.634 145.571 230.384 142.625 222.906 133.915C218.663 128.97 206.652 122.65 195.038 116.535C182.836 110.115 169.012 102.835 167.859 98.6455C165.244 89.1352 166.065 85.3848 167.215 83.912C167.829 83.1256 168.728 82.7442 169.962 82.7442C181.686 82.7442 215.718 115.478 243.656 146.11C244.005 146.492 244.2 146.681 244.211 146.689C249.441 150.584 254.049 151.549 258.113 152.399C263.861 153.601 268.823 154.639 274.788 163.064C277.629 167.074 277.149 171.898 276.645 177.003C276.138 182.134 275.609 187.439 278.611 192.065ZM276.331 162.014C269.942 152.99 264.387 151.828 258.507 150.6C254.444 149.748 250.243 148.869 245.456 145.318L245.056 144.885C231.369 129.875 185.497 80.9032 169.962 80.9032C168.13 80.9032 166.706 81.537 165.724 82.7915C163.651 85.4479 163.755 90.7922 166.046 99.1268C167.408 104.084 180.398 110.92 194.15 118.158C205.609 124.189 217.459 130.427 221.471 135.103C225.073 139.298 229.813 145.111 229.386 147.123C229.271 147.67 228.668 147.988 227.611 148.503C225.213 149.671 221.592 151.439 223.523 159.736C224.856 165.473 228.477 171.172 231.98 176.687C235.242 181.824 238.324 186.674 239.579 191.392C243.02 204.319 221.404 228.073 207.1 243.788C202.382 248.972 198.308 253.451 195.714 256.822C185.293 270.38 172.309 282.928 159.751 295.063C135.324 318.671 110.065 343.08 101.182 376.79C87.9072 427.153 85.2599 471.627 93.3146 508.974C97.6088 528.904 112.412 556.696 126.767 556.696C135.707 556.696 142.217 546.165 146.114 525.391C161.135 445.384 202.106 418.763 241.727 393.017C276.835 370.209 309.995 348.664 324.259 292.717C329.637 271.606 321.363 239.148 310.612 221.18C305.816 213.161 299.771 208.653 293.929 204.295C288.792 200.466 283.943 196.847 280.196 191.076C277.54 186.987 278.012 182.223 278.514 177.182C279.029 171.969 279.563 166.58 276.331 162.014Z" fill="#E0E0E0"/>
<path d="M-6 -8.71603C84.4472 41.476 181.922 121.324 199.67 161.012C210.327 184.848 184.491 213.329 151.784 249.387C114.614 290.361 68.3593 341.358 65.4812 402.562C61.9729 477.171 24.2635 507.814 -6 517.079V519.002C24.9582 509.755 63.7807 478.715 67.3561 402.648C70.2046 342.091 116.215 291.368 153.187 250.61C186.342 214.06 212.531 185.187 201.389 160.27C183.51 120.286 85.1017 39.7428 -6 -10.6807V-8.71603Z" fill="#E0E0E0"/>
<path d="M19.06 179.53C17.7377 171.051 11.7697 163.474 0.818209 156.362C-1.42413 154.905 -3.68524 153.432 -6 151.902V152.848C-3.85422 154.261 -1.72722 155.655 0.37296 157.02C11.126 164 16.9786 171.403 18.2634 179.649C20.3904 193.288 9.82511 207.356 -3.1488 223.01C-4.02588 224.068 -4.99417 225.37 -6 226.766V228.139C-4.75277 226.377 -3.57795 224.778 -2.52652 223.507C10.5735 207.703 21.238 193.485 19.06 179.53Z" fill="#E0E0E0"/>
<path d="M42.7869 188.433C49.7607 169.226 42.7467 161.506 11.177 141.005C8.66907 139.377 6.15047 137.741 3.57285 136.032C0.262989 133.836 -2.88862 131.737 -6 129.643V130.601C-3.03078 132.594 -0.0186448 134.601 3.15174 136.705C5.70253 138.396 8.22382 140.035 10.7317 141.663C41.883 161.89 48.8166 169.473 42.0306 188.167C35.8856 205.097 24.0033 219.436 11.421 234.625C5.56574 241.686 -0.404885 248.903 -6 256.609V257.974C-0.23054 249.942 5.97076 242.449 12.0487 235.116C24.6739 219.881 36.5964 205.489 42.7869 188.433Z" fill="#E0E0E0"/>
<path d="M255.935 295.2C254.969 299.784 252.172 305.426 248.259 310.675C244.179 316.138 235.818 325.338 225.655 325.554L225.556 326.214V325.556C225.393 325.556 225.229 325.546 225.068 325.527C224.105 325.417 223.942 325.009 223.885 324.875C223.593 324.149 223.633 321.616 230.347 313.805L230.553 313.568C232.195 311.63 233.799 309.665 235.405 307.698C237.873 304.679 240.426 301.552 243.068 298.598C243.549 298.062 244.109 297.37 244.734 296.605C247.231 293.533 251.005 288.896 254.296 288.896C254.841 288.917 255.24 289.106 255.549 289.49C256.474 290.653 256.335 293.291 255.935 295.2ZM254.35 287.581L254.176 287.578C250.361 287.578 246.502 292.32 243.685 295.787C243.076 296.534 242.529 297.207 242.06 297.73C239.396 300.707 236.835 303.842 234.359 306.878C232.758 308.837 231.157 310.799 229.523 312.727L229.322 312.958C223.968 319.189 221.782 323.242 222.638 325.359C222.874 325.943 223.459 326.669 224.912 326.834C225.122 326.858 225.339 326.871 225.556 326.871L225.685 326.869C236.425 326.64 245.115 317.108 249.339 311.449C253.363 306.054 256.246 300.229 257.247 295.468C257.48 294.359 258.126 290.587 256.606 288.68C256.058 287.996 255.281 287.615 254.35 287.581Z" fill="#E0E0E0"/>
<path d="M448.465 509.886C438.165 505.289 426.06 503.053 411.461 503.053C381.058 503.053 345.54 513.074 314.206 521.914C288.728 529.102 264.663 535.89 247.99 535.892C238.181 535.892 231.527 533.578 227.646 528.818C222.946 523.05 222.187 513.645 225.323 500.066C232.104 470.704 270.856 435.432 305.047 404.313C325.828 385.401 345.46 367.532 355.757 353.011C388.743 306.491 399.592 223.652 363.17 174.481C353.97 162.059 338.368 149.711 321.848 136.639C286.676 108.808 246.813 77.2659 262.847 37.268C270.376 18.4815 288.841 9.92329 308.386 0.860115C320.609 -4.80502 333.245 -10.6648 343.244 -19.2861C351.908 -26.7555 358.868 -34.0591 365.6 -41.1208C382.898 -59.2682 396.561 -73.5994 425.089 -73.5994C429.585 -73.5994 434.466 -73.2391 439.595 -72.5263C511.237 -62.5716 595.035 -47.3199 682.966 7.99284C779.754 68.8734 869.743 132.763 907.332 244.351C923.548 292.496 916.438 349.266 889.642 385.619C871.478 410.26 846.169 423.287 816.447 423.289C805.954 423.289 794.844 421.648 783.424 418.41C747.873 408.327 725.383 387.615 714.673 355.094C705.081 325.977 705.548 290.156 706.001 255.513C706.725 199.961 707.474 142.515 667.42 109.263C648.285 93.3723 647.773 93.1277 636.717 95.7999C631.934 96.9571 625.382 98.5378 614.307 99.5609C606.013 100.326 600.126 100.523 595.397 100.681C579.218 101.223 579.218 101.223 555.834 121.995L555.521 122.274C548.941 128.118 539.451 132.444 529.404 137.023C514.493 143.819 499.076 150.844 493.545 163.392C486.137 180.198 492.834 228.336 497.238 249.016C502.45 273.502 518.415 296.044 532.496 315.938L535.466 320.136C540.406 327.142 545.637 334.267 550.695 341.158C580.339 381.542 610.994 423.302 610.241 475.362C609.752 509.042 572.199 548.795 537.179 552.704C534.953 552.951 532.73 553.08 530.568 553.08C510.001 553.08 495.315 541.884 479.769 530.03C470.172 522.713 460.251 515.146 448.465 509.886ZM537.332 554.008C572.92 550.039 611.085 509.623 611.582 475.383C612.341 422.887 581.557 380.948 551.784 340.39C546.728 333.504 541.503 326.385 536.568 319.384L533.599 315.189C519.589 295.4 503.708 272.974 498.55 248.748C494.175 228.202 487.494 180.432 494.776 163.916C500.103 151.825 515.287 144.908 529.97 138.215C540.111 133.591 549.692 129.228 556.422 123.247L556.736 122.968C579.754 102.52 579.754 102.52 595.443 101.996C600.19 101.838 606.099 101.639 614.433 100.871C625.607 99.837 632.213 98.2432 637.039 97.0781C640.107 96.3364 642.323 95.8025 644.291 95.8025C649.133 95.8025 653.172 99.1558 666.557 110.268C706.125 143.12 705.382 200.25 704.66 255.497C703.754 325.022 702.817 396.915 783.053 419.673C794.592 422.945 805.828 424.604 816.447 424.604C846.617 424.602 872.302 411.388 890.729 386.389C917.765 349.711 924.948 292.465 908.603 243.94C870.877 131.942 780.69 67.9002 683.693 6.88818C595.531 -48.5692 511.567 -63.8524 439.785 -73.8282C434.593 -74.5488 429.649 -74.9144 425.089 -74.9144C395.979 -74.9144 382.142 -60.3991 364.621 -42.0203C357.91 -34.9797 350.972 -27.6996 342.359 -20.275C332.502 -11.7747 319.952 -5.95435 307.815 -0.328659C288.02 8.84761 269.325 17.5163 261.597 36.7893C245.203 77.684 285.474 109.55 321.006 137.665C337.453 150.679 352.989 162.971 362.087 175.254C398.173 223.973 387.377 306.11 354.654 352.259C344.44 366.667 324.863 384.485 304.135 403.351C269.802 434.598 230.886 470.017 224.017 499.771C220.785 513.771 221.629 523.536 226.6 529.638C230.749 534.73 237.747 537.207 247.99 537.207C264.851 537.205 289.004 530.39 314.576 523.179C345.827 514.36 381.246 504.368 411.461 504.368C425.865 504.368 437.787 506.565 447.91 511.083C459.551 516.28 469.41 523.797 478.948 531.069C494.68 543.062 509.539 554.395 530.568 554.395C532.781 554.395 535.055 554.263 537.332 554.008Z" fill="#E0E0E0"/>
<path d="M1179.78 224.207L1178.7 225.825C1177.55 227.547 1176.4 229.412 1175.29 231.213C1170.63 238.762 1165.81 246.57 1159.27 246.57C1158.42 246.57 1157.55 246.436 1156.66 246.179C1154.65 245.589 1152.48 244.303 1150.23 242.357C1144.39 237.31 1141.95 226.658 1139.99 218.095C1139.52 216.03 1139.08 214.081 1138.62 212.359C1134.23 195.892 1128.33 180.748 1122.61 166.096C1121.76 163.916 1120.75 161.47 1119.65 158.813C1119.1 157.488 1118.23 155.681 1117.23 153.587C1113.51 145.831 1107.28 132.847 1109.79 127.881C1111.8 123.899 1114.83 121.964 1119.05 121.964C1130.58 121.964 1147.43 136.363 1157.49 144.966C1160.18 147.265 1162.3 149.079 1163.71 150.084C1168.19 153.293 1172.48 156.362 1175.8 158.621C1208.71 181.021 1197.82 197.278 1179.78 224.207ZM1164.5 149.022C1163.14 148.051 1161.04 146.252 1158.37 143.975C1148.17 135.251 1131.09 120.649 1119.05 120.649C1114.34 120.649 1110.82 122.884 1108.59 127.297C1105.79 132.834 1111.94 145.66 1116.01 154.148C1117.01 156.223 1117.87 158.016 1118.41 159.31C1119.5 161.954 1120.51 164.394 1121.36 166.567C1127.06 181.182 1132.95 196.294 1137.32 212.69C1137.77 214.4 1138.22 216.333 1138.69 218.384C1140.68 227.129 1143.17 238.015 1149.34 243.343C1151.74 245.416 1154.07 246.794 1156.28 247.438C1157.28 247.733 1158.29 247.885 1159.27 247.885C1166.57 247.885 1171.58 239.756 1176.43 231.895C1177.54 230.101 1178.68 228.249 1179.82 226.548L1180.9 224.93C1199.39 197.333 1210.55 180.674 1176.57 157.54C1173.25 155.289 1168.97 152.228 1164.5 149.022Z" fill="#E0E0E0"/>
<path d="M1186.48 119.494C1180.57 115.262 1174.66 110.531 1168.41 105.521C1149.29 90.2163 1127.63 72.8684 1108.15 72.8684C1104.32 72.8684 1100.67 73.5286 1097 74.8883C1062.61 87.6336 1067.55 123.292 1073.55 143.412C1077.22 155.705 1081.96 167.863 1086.54 179.622C1091.88 193.328 1097.4 207.501 1101.25 221.94C1103.57 230.651 1104.73 239.824 1105.86 248.698C1109.32 275.911 1112.59 301.615 1149.6 301.615C1152.54 301.615 1155.7 301.452 1159 301.134C1163.2 300.726 1166.68 300.076 1169.62 299.148C1179.47 296.039 1182.41 290.187 1186.86 281.324C1188.21 278.644 1189.74 275.609 1191.64 272.342C1194.54 267.327 1197.7 262.564 1201 257.977V256.609C1197.45 261.496 1194.05 266.577 1190.93 271.951C1189.03 275.238 1187.5 278.286 1186.15 280.977C1181.78 289.656 1178.9 295.39 1169.37 298.398C1166.49 299.308 1163.07 299.945 1158.92 300.347C1155.65 300.663 1152.51 300.826 1149.6 300.826C1113.3 300.826 1110.22 276.624 1106.66 248.601C1105.53 239.703 1104.36 230.503 1102.03 221.74C1098.17 207.259 1092.64 193.067 1087.29 179.341C1082.71 167.598 1077.98 155.452 1074.32 143.191C1068.4 123.331 1063.5 88.1464 1097.29 75.6247C1100.86 74.3018 1104.42 73.6574 1108.15 73.6574C1127.34 73.6574 1148.88 90.9106 1167.9 106.133C1174.16 111.151 1180.07 115.888 1186 120.133C1190.48 123.337 1194.42 126.153 1197.37 128.157C1198.57 128.973 1199.79 129.785 1201 130.601V129.643C1199.94 128.933 1198.88 128.221 1197.83 127.51C1194.89 125.509 1190.95 122.697 1186.48 119.494Z" fill="#E0E0E0"/>
<path d="M1104.57 -262.969C1101.04 -262.969 1097.61 -262.995 1094.24 -263.021C1091 -263.048 1087.82 -263.074 1084.67 -263.074C1066.39 -263.074 1051.83 -262.114 1035.78 -257.335C1027.38 -254.837 1019.52 -250.91 1011.92 -247.115C999.219 -240.774 987.23 -234.788 972.874 -234.788C970.498 -234.788 968.087 -234.959 965.705 -235.295C955.118 -236.794 947.192 -242.915 939.524 -248.835C930.908 -255.486 922.768 -261.769 911.347 -261.769C910.312 -261.769 909.247 -261.714 908.19 -261.609C901.146 -260.901 889.868 -254.687 878.959 -248.674C871.945 -244.811 865.32 -241.158 860.623 -239.461C853.786 -236.992 848.666 -235.795 844.927 -234.922C833.654 -232.292 832.232 -231.321 826.752 -210.967C825.237 -205.339 824.14 -200.079 823.078 -194.992C819.132 -176.116 816.018 -161.204 795.494 -146.96C781.645 -137.373 764.071 -132.713 741.771 -132.71C719.675 -132.71 696.579 -137.247 676.196 -141.25C665.54 -143.343 655.474 -145.318 647.996 -146.1C643.65 -146.555 636.956 -146.825 630.084 -146.825C610.399 -146.825 587.334 -139.758 585.722 -129.614C584.958 -124.812 588.783 -117.6 611.354 -110.525L613.872 -109.736C699.891 -82.6837 759.884 -47.3804 820.945 12.1193C837.787 28.5335 850.651 36.1791 861.425 36.1791C863.957 36.1791 866.43 35.7425 868.783 34.8851C880.236 30.6928 888.586 16.5194 898.258 0.10788C903.252 -8.36617 908.911 -17.9685 915.601 -27.2132C947.994 -71.9819 994.482 -104.692 1046.5 -119.32C1061.85 -123.636 1076.83 -125.824 1091.03 -125.824C1137.36 -125.824 1170.05 -103.587 1201 -80.7006V-82.3444C1170.11 -105.15 1137.39 -127.139 1091.03 -127.139C1076.71 -127.139 1061.6 -124.936 1046.13 -120.585C993.822 -105.875 947.074 -72.984 914.506 -27.9732C907.782 -18.6813 902.104 -9.04735 897.096 -0.549652C887.556 15.641 879.313 29.625 868.313 33.6516C866.111 34.4564 863.794 34.864 861.425 34.864C851.026 34.864 838.463 27.3394 821.887 11.1883C760.668 -48.4719 700.519 -83.8672 614.28 -110.988L611.759 -111.78C594.858 -117.077 586.082 -123.342 587.047 -129.412C588.389 -137.839 608.902 -145.51 630.084 -145.51C636.91 -145.51 643.554 -145.242 647.853 -144.792C655.27 -144.017 665.307 -142.047 675.934 -139.958C696.375 -135.945 719.544 -131.395 741.771 -131.395C764.361 -131.398 782.184 -136.137 796.269 -145.887C817.225 -160.431 820.387 -175.567 824.389 -194.729C825.449 -199.797 826.546 -205.039 828.05 -210.631C833.506 -230.906 834.617 -231.166 845.235 -233.644C849.009 -234.525 854.173 -235.732 861.082 -238.228C865.883 -239.958 872.554 -243.635 879.619 -247.53C889.905 -253.198 901.559 -259.623 908.327 -260.302C909.341 -260.402 910.357 -260.454 911.347 -260.454C922.304 -260.454 930.265 -254.308 938.695 -247.801C946.5 -241.776 954.571 -235.545 965.512 -233.993C967.958 -233.646 970.436 -233.473 972.874 -233.473C987.551 -233.473 1000.25 -239.811 1012.53 -245.942C1020.08 -249.711 1027.89 -253.611 1036.17 -256.075C1052.06 -260.807 1066.51 -261.759 1084.67 -261.759C1087.81 -261.759 1090.99 -261.733 1094.23 -261.706C1097.6 -261.68 1101.04 -261.654 1104.57 -261.654C1120.95 -261.654 1135.61 -259.778 1149.39 -255.92C1166.8 -251.044 1183.88 -244.23 1201 -236.292V-237.746C1184.02 -245.597 1167.06 -252.341 1149.76 -257.185C1135.86 -261.078 1121.08 -262.969 1104.57 -262.969Z" fill="#E0E0E0"/>
<path d="M1187.12 142.636C1184.01 140.519 1179.81 137.515 1175.41 134.364C1169.09 129.846 1163.01 124.972 1156.53 119.783C1155.07 118.613 1153.48 117.293 1151.78 115.88C1140.98 106.893 1126.17 94.5821 1112.55 94.5821C1108.8 94.5821 1105.31 95.5421 1102.19 97.4331C1078.66 111.706 1092.81 145.795 1101.27 166.162C1102.3 168.642 1103.27 170.985 1104.08 173.047C1109.6 187.21 1115.31 201.854 1119.41 217.29C1120.19 220.188 1120.96 223.597 1121.78 227.205C1125.53 243.73 1130.67 266.364 1143.57 274.52C1145.7 275.867 1147.94 276.706 1150.22 277.016C1150.91 277.108 1151.61 277.158 1152.31 277.158C1168.08 277.158 1183.81 253.661 1195.29 236.505C1197.37 233.396 1199.27 230.585 1201 228.139V226.766C1199.09 229.417 1196.97 232.56 1194.62 236.071C1183.24 253.075 1167.65 276.369 1152.31 276.369C1151.65 276.369 1150.98 276.322 1150.33 276.235C1148.16 275.94 1146.04 275.141 1144.01 273.857C1131.39 265.878 1126.29 243.427 1122.57 227.032C1121.75 223.418 1120.97 220.002 1120.2 217.09C1116.08 201.615 1110.36 186.947 1104.83 172.766C1104.02 170.693 1103.04 168.347 1102.01 165.862C1093.65 145.729 1079.66 112.027 1102.62 98.1038C1105.61 96.2917 1108.95 95.3738 1112.55 95.3738C1125.88 95.3738 1140.55 107.575 1151.26 116.483C1152.96 117.898 1154.56 119.223 1156.05 120.422C1162.51 125.588 1168.6 130.469 1174.93 135.001C1179.34 138.154 1183.54 141.16 1186.67 143.286C1190.85 146.129 1195.09 148.938 1199.6 151.931C1200.07 152.246 1200.53 152.535 1201 152.848V151.902C1200.67 151.683 1200.35 151.478 1200.02 151.257C1195.54 148.285 1191.31 145.476 1187.12 142.636Z" fill="#E0E0E0"/>
<path d="M1047.7 329.288C1049.22 331.237 1052.08 333.896 1059.24 334.472C1086.05 336.621 1126.56 339.872 1160.77 370.433L1161.16 370.775C1172.86 381.253 1182.36 394.508 1189.39 410.176C1191.34 414.499 1194.5 416.982 1198.06 416.982C1199.03 416.982 1200.02 416.788 1201 416.393V415.452C1200.03 415.904 1199.04 416.193 1198.06 416.193C1194.83 416.193 1191.94 413.884 1190.13 409.857C1183.05 394.09 1173.48 380.745 1161.71 370.194L1161.31 369.846C1126.9 339.106 1086.22 335.845 1059.31 333.686C1052.46 333.136 1049.77 330.64 1048.34 328.81C1044.93 324.431 1044.49 317.682 1044.89 315.601C1048.61 299.506 1053.25 279.472 1051.51 257.546C1048.57 220.428 1033.44 188.536 1018.8 157.69C1007.06 132.939 993.745 104.884 998.369 92.0967C1006.6 69.3362 1040.23 36.7024 1054.31 23.731C1063.25 15.4858 1073.88 11.3066 1085.89 11.3066C1092.76 11.3066 1098.69 12.7242 1102.46 13.913C1127.13 21.7111 1162.06 39.5823 1201 64.1207V63.1845C1162.18 38.7513 1127.34 20.951 1102.7 13.1634C1098.89 11.9562 1092.87 10.5176 1085.89 10.5176C1073.66 10.5176 1062.85 14.7704 1053.75 23.155C1039.63 36.1685 1005.9 68.9101 997.61 91.831C992.876 104.926 1006.26 133.136 1018.08 158.027C1032.68 188.804 1047.78 220.63 1050.71 257.606C1052.44 279.412 1047.82 299.382 1044.1 315.459C1043.68 317.637 1044.14 324.715 1047.7 329.288Z" fill="#E0E0E0"/>
<path d="M1098.2 305.452C1104.3 308.732 1112.69 310.131 1120.79 311.483C1126.79 312.482 1133 313.521 1138.05 315.304C1141.24 316.433 1144.76 318.137 1148.5 319.938C1156.19 323.655 1164.91 327.871 1172.85 327.871C1174.38 327.871 1175.86 327.713 1177.24 327.403C1177.61 327.318 1177.98 327.226 1178.34 327.121C1189.7 323.797 1195.78 309.823 1201 296.976V294.845C1200.97 294.921 1200.94 294.998 1200.91 295.074C1195.6 308.169 1189.58 323.01 1178.1 326.366C1177.76 326.466 1177.41 326.553 1177.06 326.632C1175.74 326.932 1174.32 327.082 1172.85 327.082C1165.1 327.082 1156.47 322.91 1148.85 319.234C1145.1 317.419 1141.56 315.709 1138.32 314.563C1133.2 312.751 1126.96 311.712 1120.93 310.704C1112.89 309.363 1104.57 307.977 1098.58 304.758C1085.34 297.636 1086.72 284.593 1088.18 270.785C1088.75 265.381 1089.35 259.789 1088.94 254.684C1085.48 210.925 1068.9 175.977 1052.86 142.184C1045.59 126.84 1045.05 110.023 1051.36 94.8372C1058.2 78.402 1072.52 65.1229 1090.65 58.4031C1096.3 56.3096 1102.19 55.2496 1108.15 55.2496C1134.03 55.2496 1158.33 74.7068 1179.77 91.8758C1185.84 96.7362 1191.57 101.326 1197.07 105.263C1198.49 106.281 1199.78 107.199 1201 108.069V107.091C1199.92 106.323 1198.78 105.505 1197.55 104.626C1192.07 100.702 1186.34 96.1181 1180.28 91.263C1158.73 74.0125 1134.32 54.458 1108.15 54.458C1102.09 54.458 1096.11 55.539 1090.37 57.6667C1072.02 64.4627 1057.54 77.9023 1050.62 94.5374C1044.22 109.931 1044.76 126.969 1052.14 142.518C1068.14 176.248 1084.69 211.128 1088.14 254.745C1088.54 259.779 1087.95 265.333 1087.38 270.704C1085.95 284.162 1084.48 298.075 1098.2 305.452Z" fill="#E0E0E0"/>
<path d="M1080.82 319.62C1086.31 320.969 1091.67 322.187 1096.85 323.365C1124.9 329.743 1149.12 335.251 1173.33 356.749L1173.82 357.18C1179.39 362.119 1183.78 364.523 1187.26 364.523C1187.8 364.523 1188.33 364.463 1188.83 364.35C1194.09 363.156 1196.71 355.96 1199.6 346.673C1200.04 345.237 1200.53 343.806 1201 342.373V339.782C1200.25 341.997 1199.52 344.216 1198.82 346.444C1196.02 355.481 1193.49 362.482 1188.65 363.579C1185.17 364.381 1180.57 362.101 1174.36 356.591L1173.87 356.162C1149.5 334.525 1125.19 328.999 1097.03 322.597C1091.86 321.422 1086.5 320.201 1081.02 318.852C1061.35 314.013 1064.68 295.879 1067.89 278.339C1069.3 270.675 1070.75 262.751 1070.23 256.117C1067.03 215.686 1051.17 182.263 1035.83 149.929C1034 146.065 1032.04 142.289 1030.13 138.636C1020.28 119.681 1011.77 103.311 1023.93 83.165C1033.09 68.0054 1046.8 55.5994 1060.07 43.6037C1062.46 41.4392 1064.84 39.2878 1067.18 37.1338C1072.3 32.4207 1079.27 30.03 1087.89 30.03C1120.93 30.03 1171.76 64.5153 1201 85.2927V84.3196C1171.61 63.4554 1121 29.2436 1087.89 29.2436C1079.06 29.2436 1071.9 31.7027 1066.63 36.5578C1064.29 38.7118 1061.91 40.8632 1059.52 43.0251C1046.22 55.0576 1032.46 67.503 1023.24 82.76C1010.85 103.282 1019.87 120.63 1029.42 138.996C1031.31 142.641 1033.28 146.413 1035.11 150.274C1050.41 182.531 1066.24 215.891 1069.42 256.178C1069.94 262.714 1068.5 270.585 1067.1 278.197C1063.82 296.094 1060.42 314.599 1080.82 319.62Z" fill="#E0E0E0"/>
<path d="M521.435 671.017C518.635 665.746 515.987 660.77 517.9 656.733C520.767 650.686 526.155 649.771 531.364 648.882C535.538 648.169 539.854 647.436 542.423 643.943C546.594 638.273 548.606 631.482 550.553 624.917C553.238 615.854 555.775 607.293 563.61 602.42C574.245 595.808 583.378 594.706 592.211 593.641C604.323 592.178 615.763 590.8 628.759 575.212C645.557 555.06 657.906 523.276 661.793 490.185C669.636 423.363 629.4 373.492 593.9 329.493C562.854 291.013 536.042 257.782 547.219 221.659C559.12 183.189 592.034 163.061 618.394 163.061C632.157 163.061 644.034 168.092 652.74 177.618C665.188 191.234 670.143 213.024 667.061 240.629C658.95 313.216 661.715 402.848 755.864 452.086C786.361 468.032 817.852 475.785 852.145 475.782C896.096 475.782 936.847 462.906 972.802 451.541C1001.8 442.375 1026.85 434.459 1048.67 434.459C1077.33 434.459 1095.97 448.417 1109.12 479.707C1141.86 557.682 1110.36 622.608 1088.66 654.371C1053.72 705.531 1001.53 736.103 971.249 736.103C961.987 736.103 954.809 733.473 949.92 728.284C903.268 678.802 843.57 653.714 772.48 653.714C750.797 653.714 727.649 656.047 703.681 660.649C693.242 662.656 681.912 664.394 669.92 666.235C639.404 670.919 604.82 676.227 579.618 687.434C574.138 689.869 565.75 697.893 556.033 707.185C541.769 720.83 525.6 736.292 515.866 736.292C515.003 736.292 514.198 736.163 513.477 735.911C509.174 734.393 506.575 732.15 505.527 729.052C502.85 721.127 511.06 708.979 517.655 699.219C521.612 693.364 525.029 688.309 525.675 684.93C526.51 680.567 523.929 675.711 521.435 671.017ZM516.365 698.38C509.585 708.414 501.144 720.904 504.059 729.53C505.248 733.049 508.241 735.677 512.954 737.339C513.844 737.652 514.826 737.81 515.866 737.81C526.231 737.81 542.638 722.116 557.114 708.272C566.324 699.461 575.026 691.139 580.256 688.814C605.265 677.694 639.742 672.4 670.161 667.734C682.167 665.888 693.51 664.15 703.979 662.14C727.851 657.551 750.896 655.229 772.48 655.229C843.122 655.229 902.436 680.154 948.783 729.312C953.978 734.822 961.536 737.618 971.249 737.618C1001.51 737.618 1053.39 708.737 1089.95 655.215C1111.81 623.202 1143.56 557.756 1110.54 479.133C1097.31 447.62 1077.65 432.944 1048.67 432.944C1026.6 432.944 1001.45 440.895 972.324 450.1C936.482 461.428 895.852 474.268 852.145 474.268C818.115 474.268 786.859 466.572 756.593 450.747C663.263 401.938 660.54 312.908 668.595 240.795C671.728 212.751 666.642 190.553 653.888 176.603C644.884 166.751 632.61 161.543 618.394 161.543C591.462 161.543 557.859 182.042 545.738 221.219C534.328 258.101 561.373 291.621 592.688 330.435C627.999 374.202 668.024 423.813 660.256 490.008C656.404 522.824 644.181 554.319 627.56 574.252C614.958 589.369 603.817 590.713 592.023 592.136C583.019 593.222 573.709 594.343 562.784 601.139C554.453 606.32 551.838 615.149 549.067 624.494C547.157 630.935 545.183 637.599 541.168 643.054C538.968 646.047 535.146 646.699 531.101 647.386C525.758 648.298 519.707 649.329 516.499 656.096C514.265 660.81 517.21 666.354 520.061 671.716C522.438 676.185 524.892 680.803 524.157 684.651C523.567 687.726 520.23 692.665 516.365 698.38Z" fill="#E0E0E0"/>
<path d="M1164.64 518.884C1168.09 521.043 1173.68 522.232 1180.4 522.232C1186.38 522.232 1193.46 521.253 1201 519.002V517.079C1193.46 519.389 1186.37 520.391 1180.4 520.391C1174.13 520.391 1168.75 519.276 1165.65 517.332C1149.89 507.461 1142.93 490.04 1135.56 471.598C1129.19 455.681 1122.61 439.225 1109.84 427.621L1109.8 427.079L1109.25 427.092C1094.56 414.389 1074.77 408.214 1048.75 408.214C1023.39 408.214 996.701 414.184 975.254 418.984C960.603 422.261 947.949 425.093 939.805 425.093C935.023 425.093 932.113 424.128 930.914 422.142C929.315 419.499 930.52 414.549 934.495 407.432C953.029 374.249 990.459 295.134 987.865 262.395C985.822 236.56 973.161 209.881 960.917 184.08C943.19 146.718 924.857 108.085 938.201 71.1799C953.431 29.0727 1020.51 -46.1916 1068.25 -52.5748C1071.03 -52.9456 1074.04 -53.135 1077.18 -53.135C1108.23 -53.135 1153.65 -34.9902 1201 -8.71597V-10.6833C1153.64 -36.897 1108.25 -54.976 1077.18 -54.976C1073.95 -54.976 1070.86 -54.7814 1068 -54.3974C1019.66 -47.9327 951.806 28.0601 936.431 70.5645C922.83 108.18 941.329 147.16 959.214 184.859C971.388 210.51 983.976 237.036 985.996 262.537C988.305 291.726 955.647 365.728 932.848 406.549C928.411 414.494 927.282 419.746 929.299 423.081C930.865 425.675 934.301 426.932 939.805 426.932C948.16 426.932 960.909 424.081 975.672 420.777C997.028 416.001 1023.61 410.055 1048.75 410.055C1074.46 410.055 1093.93 416.156 1108.28 428.715L1108.29 428.718C1120.92 440.045 1127.48 456.428 1133.81 472.269C1141.3 491 1148.37 508.692 1164.64 518.884Z" fill="#E0E0E0"/>
<path d="M566.032 655.928C577.04 649.227 592.114 640.043 607.156 626.895C629.958 606.962 648.706 581.863 662.882 552.296C671.8 533.696 677.586 513.487 680.08 492.239C688.787 418.008 644.179 362.722 608.328 318.292C580.492 283.786 556.449 253.987 564.831 226.898C574.13 196.836 598.817 181.108 618.394 181.108C626.9 181.108 633.844 183.986 639.034 189.664C647.767 199.216 651.225 216.619 648.763 238.665C640.703 310.804 642.143 413.066 747.206 468.008C780.433 485.385 814.76 493.83 852.145 493.83C898.998 493.83 941.208 480.488 978.485 468.708C1005.99 460.013 1029.75 452.509 1048.67 452.509C1063.79 452.509 1079.52 456.636 1092.1 486.579C1121.59 556.801 1093.02 615.557 1073.37 644.33C1048.66 680.514 1007.02 709.955 980.559 709.955C973.488 709.955 967.732 707.919 963.452 703.903C933.175 675.485 905.003 657.419 874.788 647.049C848.784 638.128 820.108 634.32 778.912 634.32C734.473 634.32 688.21 641.376 648.645 654.187C601.534 669.444 571.359 670.63 563.232 670.63C559.396 670.63 556.379 670.401 554.729 669.983C552.259 669.36 550.934 668.592 550.794 667.7C550.44 665.423 556.982 661.441 566.032 655.928ZM554.528 670.749C556.242 671.183 559.332 671.419 563.232 671.419C571.389 671.419 601.674 670.23 648.897 654.937C688.387 642.149 734.559 635.109 778.912 635.109C851.919 635.109 900.425 645.834 962.896 704.471C967.333 708.632 973.277 710.744 980.559 710.744C1007.71 710.744 1048.77 681.766 1074.04 644.766C1093.78 615.865 1122.47 556.841 1092.84 486.282C1080.09 455.907 1064.07 451.717 1048.67 451.717C1029.62 451.717 1005.81 459.242 978.201 467.969C941.015 479.72 898.872 493.041 852.145 493.041C814.894 493.041 780.693 484.625 747.581 467.311C642.95 412.593 641.529 310.662 649.565 238.751C652.051 216.477 648.521 198.859 639.632 189.138C634.284 183.286 627.138 180.319 618.394 180.319C598.519 180.319 573.473 196.239 564.061 226.669C555.558 254.156 579.719 284.101 607.706 318.787C643.457 363.098 687.947 418.242 679.278 492.147C676.794 513.313 671.033 533.436 662.152 551.962C648.022 581.432 629.338 606.446 606.619 626.306C591.631 639.409 576.589 648.572 565.606 655.26C555.604 661.349 549.566 665.026 550 667.821C550.196 669.084 551.637 670.017 554.528 670.749Z" fill="#E0E0E0"/>
<path d="M629.558 239.301C627.954 253.645 628.348 264.063 628.632 271.672C629.099 284.012 629.276 288.63 620.867 291.5C618.912 292.168 616.876 292.199 614.816 291.594C607.92 289.561 598.441 278.384 591.234 263.776C583.587 248.28 580.985 234.164 584.279 226.017C589.298 213.608 604.543 199.782 618.394 199.782C622.187 199.782 623.74 200.91 624.853 202.128C628.777 206.42 631.653 220.567 629.558 239.301ZM618.394 198.467C604.007 198.467 588.211 212.732 583.032 225.53C579.604 234.015 582.217 248.527 590.027 264.35C597.387 279.267 607.193 290.721 614.427 292.854C615.533 293.18 616.643 293.343 617.729 293.343C618.936 293.343 620.141 293.141 621.307 292.741C630.65 289.553 630.438 283.933 629.974 271.622C629.689 264.055 629.295 253.693 630.888 239.446C633.029 220.328 629.974 205.76 625.854 201.249C624.531 199.805 622.713 198.467 618.394 198.467Z" fill="#E0E0E0"/>
<path d="M523.919 456.491C522.966 457.688 521.746 458.272 520.19 458.272C515.91 458.272 509.512 454.05 501.415 448.709C487.116 439.275 467.53 426.356 443.857 426.356C440.925 426.356 437.964 426.558 435.059 426.958C428.238 427.894 424.156 428.297 421.409 428.297C418.824 428.297 417.354 427.931 417.037 427.213C416.134 425.159 422.378 418.668 431.833 408.842L434.697 405.86C444.581 395.566 450.27 385.435 454.425 378.036C458.175 371.364 460.65 366.953 463.614 366.953C464.77 366.953 466.079 367.616 467.613 368.984C491.67 390.377 537.086 439.914 523.919 456.491ZM468.515 368.008C466.723 366.414 465.119 365.638 463.614 365.638C459.856 365.638 457.228 370.32 453.25 377.403C449.13 384.738 443.487 394.785 433.721 404.963L430.856 407.94C419.663 419.576 414.554 424.888 415.806 427.737C416.378 429.033 418.105 429.612 421.409 429.612C424.22 429.612 428.359 429.207 435.247 428.263C438.09 427.871 440.987 427.671 443.857 427.671C467.123 427.671 486.51 440.463 500.664 449.8C508.952 455.265 515.499 459.587 520.19 459.587C522.162 459.587 523.771 458.816 524.975 457.298C539.827 438.601 487.883 385.232 468.515 368.008Z" fill="#E0E0E0"/>
<path d="M505.907 433.691C505.993 434.803 505.779 435.211 505.642 435.356C505.596 435.406 505.457 435.553 504.974 435.553C502.785 435.553 497.944 432.705 492.335 429.407C481.48 423.026 466.616 414.284 452.282 414.037C450.152 413.997 449.211 413.177 449.227 411.364C449.283 405.218 460.524 391.784 468.89 391.784C469.85 391.784 470.735 391.978 471.521 392.362C482.226 397.609 505.009 422.237 505.907 433.691ZM468.89 389.943C459.502 389.943 447.414 404.453 447.349 411.349C447.322 414.171 449.109 415.82 452.247 415.875C466.079 416.12 480.697 424.712 491.37 430.987C497.694 434.706 502.268 437.397 504.974 437.397C505.838 437.397 506.524 437.131 507.021 436.608C507.64 435.953 507.89 434.951 507.78 433.554C506.787 420.914 482.299 395.587 472.361 390.713C471.312 390.2 470.145 389.943 468.89 389.943Z" fill="#E0E0E0"/>
<path d="M385.798 91.2577C368.798 82.0657 360.239 73.7284 359.627 65.7646C358.825 55.2996 371.437 45.8235 386.042 34.8483C390.827 31.253 395.773 27.5341 400.617 23.5233C430.988 -1.64638 443.967 -6.07543 460.009 -6.07543C464.628 -6.07543 469.461 -5.68353 475.057 -5.23379L477.682 -5.02338C538.515 -0.210377 582.729 23.4627 585.011 27.5656C585.473 28.3941 585.376 28.8123 585.264 29.0516C584.684 30.2983 581.318 31.0163 575.744 32.2024C563.186 34.8798 539.816 39.8585 504.767 59.0395C470.03 78.0522 447.644 113.813 440.869 140.821C439.219 147.402 437.53 150.6 435.706 150.6C433.085 150.6 429.558 144.395 425.097 136.542C417.241 122.724 405.375 101.838 385.798 91.2577ZM435.703 151.389H435.706C438.018 151.389 439.852 148.188 441.649 141.01C448.384 114.168 470.631 78.6255 505.159 59.7286C540.103 40.6054 563.398 35.6425 575.913 32.973C582.128 31.6501 585.248 30.9847 585.996 29.3778C586.286 28.7597 586.194 28.0443 585.717 27.1869C583.314 22.8683 540.012 -0.883661 477.749 -5.80976L475.121 -6.02016C469.51 -6.47253 464.663 -6.86441 460.009 -6.86441C443.768 -6.86441 430.66 -2.40649 400.096 22.9183C395.271 26.9186 390.328 30.6323 385.551 34.2223C370.761 45.3343 357.991 54.934 358.825 65.8224C359.466 74.1886 367.915 82.4891 385.411 91.9468C404.782 102.42 416.584 123.187 424.392 136.929C429.343 145.634 432.61 151.386 435.703 151.389Z" fill="#E0E0E0"/>
<path d="M357.618 98.5509C338.491 85.419 329.463 74.6253 329.211 64.5811C328.891 51.9042 342.402 41.6233 359.506 28.6045C367.237 22.7211 375.232 16.6378 383.013 9.54189C414.444 -19.1152 430.196 -27.8523 450.434 -27.8523C454.068 -27.8523 458.094 -27.5682 462.742 -26.9869C504.263 -21.7978 547.519 -9.37607 594.987 10.9858C606.247 15.8172 619.559 21.6901 632.892 28.6151C634.394 29.3936 636.693 30.3772 639.356 31.516C648.191 35.2875 661.541 40.9895 663.196 46.8282C663.662 48.4694 663.566 49.7265 662.914 50.5681C662.05 51.6806 660.323 51.9147 659.025 51.9147C656.225 51.9147 652.823 50.8627 650.916 49.8239C648.433 48.472 646.619 45.955 644.863 43.5222C642.285 39.948 639.622 36.2554 634.726 35.8477C629.679 35.4137 627.983 37.9413 626.326 40.3635C625.213 41.9889 624.159 43.5249 622.136 44.3086C620.913 44.782 619.792 45.0108 618.703 45.0108C615.828 45.0108 613.647 43.3565 611.337 41.6049C609.111 39.9191 606.813 38.1727 603.642 37.623C603.015 37.5125 602.357 37.4573 601.698 37.4573C596.143 37.4573 590.29 41.3235 584.631 45.0634C580.194 47.9933 576.005 50.7601 571.987 51.799C551.291 57.1459 533.625 63.8736 517.975 72.3608C467.222 99.8817 452.048 151.404 445.053 187.768C444.018 193.141 442.618 195.755 440.772 195.755C437.165 195.755 431.387 186.687 423.389 174.139C409.661 152.591 388.912 120.031 357.618 98.5509ZM440.772 196.544C443.1 196.544 444.713 193.801 445.844 187.912C452.81 151.71 467.908 100.413 518.364 73.0525C533.955 64.5942 551.561 57.8929 572.19 52.5617C576.34 51.4887 580.784 48.5535 585.079 45.7157C590.639 42.0441 596.389 38.2463 601.698 38.2463C602.312 38.2463 602.918 38.2963 603.5 38.3963C606.477 38.9144 608.698 40.6002 610.847 42.2282C613.266 44.0667 615.551 45.7999 618.703 45.7999C619.896 45.7999 621.114 45.5526 622.429 45.0424C624.687 44.1692 625.859 42.457 626.994 40.8027C628.6 38.4567 630.102 36.2554 634.659 36.6341C639.179 37.0102 641.62 40.3951 644.205 43.9772C646.013 46.4837 647.88 49.0743 650.525 50.5129C652.461 51.5676 655.948 52.7038 659.025 52.7038C661.179 52.7038 662.702 52.1462 663.555 51.0468C664.368 49.9974 664.507 48.5088 663.971 46.6152C662.214 40.4161 648.653 34.6248 639.681 30.7901C637.031 29.6592 634.743 28.6834 633.27 27.9181C619.91 20.98 606.585 15.1019 595.309 10.2652C547.772 -10.1283 504.443 -22.5711 462.844 -27.7707C458.164 -28.3572 454.103 -28.6412 450.434 -28.6412C429.955 -28.6412 414.073 -19.8542 382.466 8.96328C374.709 16.0355 366.73 22.1083 359.013 27.9812C341.729 41.1341 328.076 51.5255 328.406 64.6021C328.663 74.9172 337.799 85.9108 357.157 99.1979C388.316 120.585 409.012 153.064 422.708 174.557C431.146 187.797 436.717 196.544 440.772 196.544Z" fill="#E0E0E0"/>
<path d="M458.639 486.642C447.692 481.758 434.678 479.38 418.85 479.38C389.526 479.38 356.39 487.854 329.763 494.664C310.862 499.498 294.535 503.671 284.34 503.674H284.332C278.852 503.674 275.467 502.475 273.992 500.003C271.916 496.534 273.445 490.395 278.664 481.24C291.086 459.463 312.868 439.903 333.934 420.983C351.232 405.449 367.569 390.779 378.786 375.199C401.684 343.391 415.197 307.127 417.866 270.32C420.916 228.239 409.889 188.223 385.092 151.383C376.27 138.278 359.885 127.266 344.038 116.614C314.509 96.7676 286.617 78.0232 307.259 47.7671C317.784 32.3418 327.368 26.5662 338.459 19.878C345.454 15.662 353.377 10.8858 362.492 3.02722C370.396 -3.78988 376.75 -10.4545 382.895 -16.9007C398.728 -33.5095 411.236 -46.6282 437.379 -46.6282C441.494 -46.6282 445.96 -46.2995 450.654 -45.6472C514.021 -36.8418 584.091 -22.124 667.034 25.5326C776.222 88.2726 850.058 146.857 880.759 244.919C895.036 290.513 889.741 340.895 867.589 370.288C854.637 387.473 836.574 396.557 815.35 396.557C803.634 396.557 790.851 393.825 777.362 388.433C752.256 378.399 736.895 355.447 730.396 318.271C724.715 285.761 726.55 246.639 728.172 212.125C728.628 202.401 729.06 193.22 729.331 184.322C730.509 145.831 719.715 113.952 698.126 92.1387C678.465 72.2739 650.192 61.3355 618.51 61.3355C576.423 61.3355 533.792 79.8564 501.546 112.146C481.856 131.866 469.697 152.209 464.376 174.346C459.623 194.114 460.468 214.889 466.959 237.86C479.026 280.535 508.193 323 539.076 367.961C549.858 383.659 561.008 399.895 571.23 415.964C594.861 453.122 590.768 479.299 583.174 494.716C574.878 511.559 557.841 523.747 539.77 525.761C537.727 525.99 535.688 526.106 533.706 526.106C514.85 526.106 501.415 515.859 487.188 505.015C478.433 498.338 469.378 491.434 458.639 486.642ZM539.862 526.548C558.2 524.501 575.484 512.14 583.898 495.058C591.58 479.464 595.738 453.009 571.914 415.549C561.684 399.466 550.529 383.225 539.744 367.519C508.898 322.616 479.764 280.201 467.737 237.649C454.13 189.519 465.057 149.816 502.123 112.698C534.216 80.5586 576.638 62.1246 618.51 62.1246C649.972 62.1246 678.042 72.9788 697.549 92.6884C718.986 114.347 729.696 146.023 728.526 184.301C728.256 193.191 727.824 202.37 727.368 212.088C725.748 246.644 723.908 285.811 729.602 318.4C736.149 355.87 751.671 379.017 777.056 389.164C790.644 394.595 803.529 397.346 815.35 397.346C836.837 397.346 855.127 388.152 868.238 370.756C890.533 341.173 895.876 290.511 881.531 244.687C850.753 146.381 776.796 87.6887 667.442 24.854C584.378 -22.8736 514.214 -37.6098 450.766 -46.4257C446.038 -47.0833 441.534 -47.4173 437.379 -47.4173C410.884 -47.4173 398.275 -34.1881 382.308 -17.4399C376.176 -11.0068 369.836 -4.35538 361.961 2.43279C352.897 10.2493 345.004 15.0071 338.041 19.2073C326.866 25.9429 317.213 31.7606 306.591 47.3305C285.507 78.2337 313.715 97.1937 343.579 117.266C359.364 127.873 375.686 138.841 384.422 151.817C439.356 233.428 417.19 320.483 378.129 374.741C366.963 390.256 350.655 404.897 333.392 420.404C312.278 439.364 290.447 458.968 277.964 480.856C272.592 490.277 271.063 496.67 273.297 500.405C274.93 503.135 278.541 504.463 284.332 504.463H284.34C294.639 504.46 311.009 500.276 329.964 495.426C356.548 488.63 389.63 480.169 418.85 480.169C434.34 480.169 447.617 482.589 458.306 487.363C468.96 492.115 477.975 498.99 486.692 505.636C501.031 516.569 514.574 526.895 533.706 526.895C535.718 526.895 537.788 526.779 539.862 526.548Z" fill="#E0E0E0"/>
<path d="M459.108 466.646C451.971 462.845 442.113 460.999 428.973 460.999C412.266 460.999 393.047 464.023 376.09 466.688C362.164 468.879 350.137 470.77 341.543 470.77C336.246 470.77 332.77 470.036 330.919 468.529C330.9 468.51 330.836 468.46 330.823 468.279C330.493 464.137 352.323 439.756 375.436 413.945C404.798 381.158 438.077 343.993 439.53 333.481C440.34 327.621 437.843 323.163 435.429 318.85C432.838 314.229 430.392 309.86 431.725 303.887C432.755 299.269 435.547 296.678 438.506 293.935C442.368 290.353 446.359 286.652 446.469 278.202C446.512 274.886 444.034 269.263 441.164 262.751C438.5 256.709 435.483 249.863 434.174 243.969C432.64 237.052 433.734 232.615 437.521 230.409C438.313 229.948 439.107 229.717 439.882 229.717C449.151 229.717 456.182 261.867 459.958 279.141C461.227 284.946 462.144 289.138 462.796 290.758C475.571 322.358 501.626 354.992 527.883 385.548C548.783 409.868 572.067 447.357 568.894 472.971C567.829 481.574 563.819 488.412 556.977 493.293C551.532 497.178 544.896 499.145 537.249 499.145C516.395 499.145 491.603 485.019 471.682 473.668C467.184 471.104 462.938 468.684 459.108 466.646ZM557.449 493.932C564.479 488.917 568.599 481.895 569.693 473.066C572.896 447.199 549.501 409.479 528.497 385.038C502.286 354.534 476.277 321.964 463.547 290.463C462.917 288.909 461.956 284.527 460.744 278.975C456.651 260.257 449.801 228.925 439.882 228.925C438.962 228.925 438.028 229.196 437.111 229.733C432.988 232.134 431.771 236.847 433.388 244.138C434.713 250.105 437.747 256.991 440.424 263.063C443.259 269.491 445.705 275.043 445.665 278.192C445.56 286.308 441.695 289.895 437.953 293.362C435.038 296.065 432.02 298.864 430.939 303.716C429.542 309.978 432.176 314.681 434.724 319.234C437.073 323.431 439.506 327.773 438.734 333.373C437.312 343.651 404.117 380.722 374.83 413.426C350.596 440.49 329.664 463.866 330.021 468.339C330.047 468.681 330.176 468.95 330.407 469.134C332.405 470.764 336.048 471.559 341.541 471.559C350.199 471.559 362.258 469.662 376.219 467.466C393.144 464.805 412.33 461.788 428.973 461.788C441.977 461.788 451.708 463.603 458.722 467.337C462.544 469.373 466.787 471.79 471.277 474.346C491.281 485.748 516.18 499.934 537.249 499.934C545.068 499.934 551.865 497.914 557.449 493.932Z" fill="#E0E0E0"/>
<path d="M525.168 478.36H525.163C508.571 478.36 487.277 466.646 472.881 455.684C462.431 447.725 449.68 443.859 433.895 443.859C422.356 443.859 411.123 445.879 401.212 447.662C393.643 449.022 387.106 450.2 381.97 450.2C377.579 450.2 374.715 449.345 372.952 447.501C372.177 446.691 371.828 445.823 371.887 444.848C372.121 441.055 378.445 435.863 387.203 428.673C408.398 411.27 443.873 382.145 449.763 328.276C450.469 321.84 451.552 318.968 453.279 318.968C456.206 318.968 461.568 326.206 470.451 338.202C479.876 350.926 494.122 370.157 514.56 392.725C526.319 405.71 549.834 439.443 547.474 460.841C546.841 466.556 544.368 470.988 540.124 474.015C536.082 476.898 531.051 478.36 525.168 478.36ZM548.27 460.925C550.666 439.267 526.998 405.271 515.161 392.202C494.749 369.662 480.517 350.45 471.1 337.736C461.761 325.125 456.616 318.179 453.279 318.179C450.992 318.179 449.744 321.083 448.966 328.194C443.106 381.742 407.789 410.741 386.688 428.068C377.445 435.656 371.338 440.669 371.085 444.8C371.013 445.986 371.442 447.078 372.365 448.041C374.291 450.053 377.34 450.991 381.97 450.991C387.176 450.991 393.75 449.805 401.357 448.438C411.233 446.66 422.429 444.645 433.895 444.645C449.495 444.645 462.085 448.461 472.388 456.304C486.89 467.348 508.37 479.149 525.163 479.149H525.168C531.222 479.149 536.418 477.637 540.599 474.654C545.033 471.488 547.616 466.872 548.27 460.925Z" fill="#E0E0E0"/>
<path d="M777.254 167.958C777.388 167.811 777.533 167.75 777.729 167.75C778.099 167.75 778.818 167.974 780.135 169.039C787.726 175.185 849.57 248.756 831.411 318.542C828.732 328.833 823.324 334.501 816.184 334.501H816.181C811.018 334.498 805.243 331.427 799.919 325.848C787.911 313.271 776.055 285.319 778.789 244.606C780.406 220.517 778.59 200.079 777.383 186.553C776.501 176.621 775.862 169.447 777.254 167.958ZM777.453 244.519C774.688 285.653 786.741 313.966 798.94 326.745C804.522 332.594 810.645 335.814 816.181 335.816H816.184C823.995 335.816 829.866 329.796 832.709 318.863C851.034 248.448 788.648 174.225 780.988 168.024C778.778 166.238 777.254 166.007 776.262 167.069C774.473 168.984 775.033 175.264 776.047 186.666C777.249 200.153 779.062 220.53 777.453 244.519Z" fill="#E0E0E0"/>
<path d="M754.525 126.524C754.78 126.243 755.11 126.111 755.571 126.111C757.248 126.111 760.362 127.923 764.525 130.643C791.744 148.438 864.073 229.57 843.685 319.904C839.903 336.663 827.214 347.488 811.354 347.488C800.182 347.488 789.016 342.178 779.91 332.542C762.363 313.968 754.399 281.887 757.492 242.204C761.456 191.384 757.299 159.381 755.064 142.191C753.914 133.328 753.219 127.979 754.525 126.524ZM756.693 242.141C753.579 282.047 761.614 314.342 779.32 333.081C788.579 342.88 799.957 348.277 811.354 348.277C827.603 348.277 840.606 337.207 844.471 320.072C855.768 270.007 838.286 224.964 821.634 195.992C802.062 161.948 777.024 137.865 764.967 129.985C760.566 127.105 757.457 125.322 755.571 125.322C754.882 125.322 754.33 125.551 753.922 126.003C752.374 127.726 753.007 132.594 754.265 142.291C756.497 159.455 760.646 191.402 756.693 242.141Z" fill="#E0E0E0"/>
<path d="M732.856 91.9337C733.076 91.6733 733.376 91.5523 733.808 91.5523C735.972 91.5523 740.672 94.5453 748.456 99.5004C816.906 143.065 882.494 223.786 861.305 319.675C854.462 350.655 832.283 371.466 806.123 371.464C792.476 371.464 779.69 365.651 769.141 354.66C748.6 333.249 738.985 294.224 742.061 244.774C746.653 170.948 738.36 127.936 734.371 107.267C732.692 98.5693 731.681 93.3197 732.856 91.9337ZM741.259 244.729C738.166 294.395 747.863 333.628 768.553 355.2C779.261 366.356 792.248 372.253 806.123 372.253H806.126C832.675 372.253 855.165 351.191 862.091 319.846C872.312 273.594 863.526 228.073 835.976 184.538C808.068 140.435 769.436 111.914 748.895 98.8376C738.435 92.1783 733.953 89.4062 732.233 91.4287C730.82 93.1041 731.743 97.8855 733.58 107.414C737.563 128.052 745.846 170.998 741.259 244.729Z" fill="#E0E0E0"/>
<path d="M410.847 59.5708C416.461 44.2823 466.012 23.3365 489.769 23.3365C490.6 23.3365 491.405 23.3602 492.175 23.4102C496.828 23.7205 498.875 24.0492 499.722 24.3122C498.717 24.9961 496.072 26.1296 493.5 27.2316C481.883 32.2156 460.256 41.4918 449.777 60.899C443.184 73.113 438.364 77.8707 432.584 77.8707C427.879 77.8707 422.118 74.8251 413.323 67.6898C410.493 65.3937 409.683 62.7374 410.847 59.5708ZM432.586 79.7118C440.188 79.7118 445.619 72.537 451.437 61.759C461.608 42.9199 482.843 33.812 494.251 28.9201C500.028 26.4426 502.19 25.5142 501.914 23.9625C501.683 22.658 500.197 22.103 492.303 21.5744C468.544 19.9937 415.227 42.2098 409.079 58.9448C407.658 62.8215 408.709 66.3353 412.126 69.1074C421.286 76.5399 427.404 79.7118 432.584 79.7118H432.586Z" fill="#E0E0E0"/>
<path d="M421.09 96.6072C416.442 85.7372 407.051 81.1477 398.766 77.1027C391.47 73.539 385.17 70.4618 384.258 63.8972C383.909 61.4013 385.578 57.8691 389.083 53.6847C403.551 36.4026 443.736 13.053 460.747 12.0404C465.06 11.7853 469.392 11.6538 473.632 11.6538C510.776 11.6538 535.535 21.7321 536.042 25.9849C536.125 26.6609 534.993 27.0265 534.312 27.1843C507.004 33.528 473.281 45.0476 454.755 78.1363C439.359 105.631 427.798 112.288 421.09 96.6072ZM455.93 78.7675C474.201 46.1364 507.584 34.743 534.623 28.4625C537.22 27.8602 537.461 26.5557 537.375 25.8324C536.742 20.5144 511.425 10.3388 473.632 10.3388C469.368 10.3388 465.004 10.4703 460.666 10.7307C443.398 11.7564 402.677 35.3743 388.048 52.851C384.247 57.3905 382.525 61.1672 382.928 64.076C383.936 71.3297 390.532 74.5516 398.168 78.281C406.244 82.2234 415.399 86.6945 419.856 97.1174C422.45 103.185 425.857 106.262 429.982 106.262C436.985 106.262 445.716 97.0122 455.93 78.7675Z" fill="#E0E0E0"/>
<path d="M799.058 240.324C799.75 239.159 800.493 238.459 801.043 238.459C801.529 238.459 802.006 239.046 802.245 239.398C815.506 258.758 815.793 291.547 810.882 300.576C810.219 301.796 809.495 302.47 808.848 302.47C808.012 302.467 806.92 301.412 805.852 299.577C792.224 276.156 794.185 248.553 799.058 240.324ZM808.846 304.308C810.259 304.308 811.504 303.345 812.539 301.441C817.761 291.842 817.665 258.603 803.806 238.373C802.003 235.748 799.394 236.087 797.436 239.398C792.229 248.191 790.043 276.124 804.222 300.492C805.694 303.025 807.253 304.308 808.846 304.308Z" fill="#E0E0E0"/>
<path d="M983.311 385.009C985.226 387.712 989.898 388.867 998.937 388.867C1004.59 388.864 1011.33 388.425 1019.14 387.915C1028.81 387.284 1039.77 386.566 1051.1 386.566C1086.97 386.566 1111.15 394.038 1127.28 410.141C1142.27 421.451 1150.54 439.89 1157.84 456.157C1166.71 475.93 1174.37 493.007 1191.28 493.007C1193.07 493.007 1194.97 492.807 1196.91 492.415C1198.21 492.152 1199.58 491.807 1201 491.384V490.003C1199.48 490.471 1198.02 490.847 1196.64 491.123C1194.79 491.5 1192.98 491.692 1191.28 491.692C1175.24 491.692 1167.75 474.98 1159.07 455.628C1151.7 439.217 1143.36 420.614 1128.17 409.16C1111.84 392.849 1087.35 385.251 1051.1 385.251C1039.72 385.251 1028.74 385.969 1019.05 386.602C1011.27 387.11 1004.55 387.549 998.937 387.552C990.617 387.552 986.004 386.505 984.413 384.259C983.544 383.031 983.531 381.366 984.368 379.167C1001.44 334.438 1015.72 277.818 1014.34 260.378C1011.92 229.846 998.232 200.994 984.995 173.097C968.805 138.98 953.511 106.757 963.226 79.8827C976.737 42.5307 1038.43 -22.3081 1071.84 -26.7766C1073.44 -26.9896 1075.23 -27.0974 1077.18 -27.0974C1103.2 -27.0974 1149.04 -8.83171 1201 21.3718V19.8464C1149.1 -10.2335 1103.29 -28.4125 1077.18 -28.4125C1075.17 -28.4125 1073.32 -28.2994 1071.66 -28.0785C1037.88 -23.56 975.578 41.7995 961.966 79.4409C952.063 106.822 967.47 139.285 983.78 173.652C996.969 201.444 1010.61 230.182 1013 260.481C1014.21 275.756 1001.42 330.727 983.112 378.704C982.109 381.337 982.173 383.399 983.311 385.009Z" fill="#E0E0E0"/>
<path d="M1023.82 350.75C1028.81 357.782 1039.34 358.574 1053.92 359.668C1055.51 359.786 1057.13 359.91 1058.81 360.042C1063.42 360.412 1068.25 360.576 1073.36 360.746C1097.07 361.543 1123.95 362.443 1148.21 384.117L1148.51 384.375C1161.97 395.931 1169.98 416.288 1177.04 434.246C1184.16 452.338 1190.31 467.966 1200.08 467.966C1200.38 467.966 1200.69 467.903 1201 467.874V467.08C1200.69 467.114 1200.38 467.177 1200.08 467.177C1190.86 467.177 1184.8 451.783 1177.79 433.965C1170.69 415.917 1162.65 395.466 1149.04 383.786L1148.75 383.531C1124.27 361.664 1097.24 360.757 1073.39 359.957C1068.28 359.786 1063.47 359.623 1058.88 359.258C1057.2 359.124 1055.57 359 1053.98 358.882C1039.62 357.803 1029.25 357.025 1024.48 350.297C1019.96 343.927 1020.6 332 1026.55 311.633C1032.07 292.783 1034.1 275.559 1032.79 258.974C1030.12 225.172 1015.71 194.816 1001.78 165.441C987.227 134.785 973.486 105.828 980.672 85.9451C992.642 52.8406 1050.42 -5.59403 1074.34 -8.79481C1074.87 -8.86582 1075.8 -8.94996 1077.18 -8.94996C1097.16 -8.94996 1142.37 7.35899 1201 42.5649V41.6392C1142.43 6.52792 1097.22 -9.73898 1077.18 -9.73898C1075.75 -9.73898 1074.79 -9.64957 1074.23 -9.57593C1050.13 -6.35411 991.948 52.4039 979.913 85.682C972.614 105.868 986.425 134.967 1001.05 165.791C1014.95 195.084 1029.32 225.375 1031.99 259.034C1033.3 275.525 1031.27 292.66 1025.78 311.417C1019.67 332.31 1019.08 344.074 1023.82 350.75Z" fill="#E0E0E0"/>
<path d="M436.095 539.227C433.421 538.449 430.223 538.07 426.323 538.07C409.852 538.07 384.373 544.921 354.872 552.859C317.675 562.864 275.515 574.202 241.368 574.204C218.167 574.204 201.644 569.039 190.856 558.411C180.978 548.682 176.018 534.046 176.11 514.91C176.271 481.369 222.413 444.511 263.124 411.988C287.39 392.604 310.312 374.294 321.566 358.421C344.695 325.796 365.147 290.471 358.19 253.23C354.142 231.569 341.562 218.729 328.251 205.139C320.909 197.643 313.316 189.895 306.895 180.332C300.913 171.43 297.735 163.463 294.932 156.436C289.407 142.586 285.043 131.65 263.655 121.974C257.314 119.107 252.338 117.024 248.342 115.352C232.841 108.858 232.841 108.858 226.737 93.1882C225.446 89.8769 223.891 85.8845 221.874 81.0084C214.079 62.1588 207.993 58.4714 200.113 58.4714C198.439 58.4714 196.725 58.6345 194.909 58.8054C192.89 58.9948 190.8 59.1947 188.528 59.1947C183.547 59.1947 176.614 58.3688 167.119 51.9278C159.863 47.007 156.814 42.5333 158.056 38.6355C162.94 23.2891 231.2 17.5451 244.772 17.5451C245.099 17.5451 245.322 17.5477 245.429 17.5635L245.641 16.714L246.057 17.5214C254.972 13.1029 259.808 7.43781 264.486 1.9594C270.706 -5.32848 276.583 -12.214 291.499 -16.8744C296.804 -18.534 301.294 -19.8069 304.902 -20.83C324.388 -26.3558 324.651 -26.6346 333.014 -50.7548L334.071 -53.8031C335.632 -58.2926 334.371 -61.4644 333.258 -64.2628C331.818 -67.887 330.573 -71.0168 335.557 -76.7503C338.215 -79.8038 347.764 -83.4201 356.189 -86.613C361.867 -88.7644 367.234 -90.7974 370.096 -92.5043C374.554 -95.1633 377.585 -98.7744 380.514 -102.267C384.317 -106.796 387.906 -111.075 394.386 -113.35C398.758 -114.886 404.144 -115.667 410.391 -115.667C426.286 -115.667 444.973 -110.799 459.988 -106.888C463.427 -105.991 466.645 -105.152 469.561 -104.445C518.321 -92.6043 564.718 -71.0825 609.589 -50.2709L614.21 -48.1247C720.837 1.29926 801.419 56.5594 860.562 120.806C900.272 163.942 925.901 205.957 938.915 249.25C954.195 300.1 943.222 362.114 911.607 403.569C895.203 425.083 866.076 450.726 820.489 450.728C808.698 450.731 796.395 448.937 783.928 445.403C675.209 414.571 678.796 309.442 690.689 213.324C694.243 184.596 688.747 161.246 674.786 145.797C662.981 132.734 645.136 125.538 624.537 125.538C586.659 125.538 538.328 151.076 523.361 198.404C506.203 252.669 542.82 298.922 578.228 343.651C615.978 391.334 655.01 440.637 633.211 501.425C620.634 536.489 573.811 582.373 534.532 586.76C532.344 587.002 530.16 587.126 528.036 587.126C507.195 587.126 492.413 575.533 476.765 563.255C464.631 553.737 452.081 543.893 436.095 539.227ZM534.744 588.588C574.669 584.13 622.228 537.594 634.984 502.038C657.123 440.3 617.77 390.595 579.714 342.523C542.981 296.126 508.287 252.301 525.155 198.948C539.854 152.462 587.329 127.376 624.537 127.376C644.592 127.376 661.935 134.354 673.38 147.02C686.971 162.061 692.314 184.911 688.824 213.103C676.835 309.973 673.27 415.935 783.405 447.167C796.044 450.755 808.521 452.57 820.489 452.57C866.854 452.567 896.45 426.522 913.115 404.671C945.062 362.777 956.156 300.108 940.717 248.732C927.623 205.165 901.86 162.919 861.957 119.573C802.642 55.1418 721.867 -0.257736 615.012 -49.7896L610.391 -51.9357C565.437 -72.7842 518.954 -94.348 470.011 -106.233C467.107 -106.938 463.896 -107.774 460.471 -108.666C445.351 -112.606 426.533 -117.506 410.391 -117.506C403.927 -117.506 398.329 -116.69 393.753 -115.083C386.785 -112.637 382.861 -107.959 379.063 -103.437C376.233 -100.063 373.307 -96.5756 369.12 -94.0771C366.4 -92.4543 361.11 -90.4503 355.51 -88.3304C346.458 -84.9008 337.097 -81.3555 334.13 -77.9443C328.417 -71.3744 329.989 -67.4189 331.509 -63.5948C332.601 -60.8463 333.634 -58.2505 332.293 -54.3948L331.236 -51.3492C323.109 -27.9075 323.109 -27.9075 304.379 -22.5974C300.76 -21.5717 296.257 -20.2935 290.927 -18.6287C275.491 -13.8078 269.164 -6.39104 263.046 0.778496C258.338 6.29372 253.889 11.5039 245.515 15.7251C245.289 15.7041 245.04 15.7041 244.772 15.7041C235.108 15.7041 161.883 20.4303 156.264 38.0858C154.748 42.8436 158.042 48.009 166.049 53.4427C176.083 60.2493 183.684 61.0357 188.528 61.0357C190.891 61.0357 193.026 60.8332 195.092 60.6386C196.859 60.4703 198.528 60.3125 200.113 60.3125C206.003 60.3125 211.966 61.9483 220.136 81.7001C222.145 86.5604 223.695 90.545 224.982 93.8457C231.312 110.092 231.522 110.31 247.604 117.043C251.59 118.713 256.552 120.791 262.869 123.647C283.57 133.01 287.811 143.643 293.181 157.106C296.021 164.218 299.237 172.282 305.326 181.345C311.843 191.047 319.496 198.859 326.896 206.412C340.012 219.799 352.399 232.444 356.344 253.564C363.176 290.14 342.925 325.072 320.024 357.369C308.92 373.031 286.099 391.26 261.935 410.562C220.905 443.338 174.398 480.49 174.232 514.899C174.138 534.546 179.283 549.621 189.526 559.71C200.684 570.704 217.641 576.046 241.368 576.046C275.77 576.043 318.058 564.668 355.368 554.634C384.738 546.733 410.104 539.911 426.323 539.911C429.987 539.911 433.096 540.277 435.558 540.995C451.196 545.555 463.598 555.284 475.593 564.694C491.507 577.176 506.538 588.967 528.036 588.967C530.23 588.967 532.488 588.841 534.744 588.588Z" fill="#E0E0E0"/>
<path d="M779.829 -168.634C770.737 -162.335 758.286 -159.274 741.771 -159.274C722.368 -159.274 700.666 -163.534 681.518 -167.295C670.231 -169.512 659.572 -171.606 650.865 -172.513C646.601 -172.96 635.156 -173.997 621.05 -173.997C594.92 -173.997 561.408 -170.525 550.148 -153.984C545.25 -146.794 545.049 -137.757 549.55 -127.124C551.666 -122.132 557.133 -119.418 562.419 -116.796C566.601 -114.72 570.927 -112.574 573.325 -109.376C576.171 -105.581 577.85 -100.266 579.473 -95.1238C581.635 -88.2778 583.869 -81.1977 588.946 -77.0159C595.242 -71.8294 602.148 -69.415 610.688 -69.415C616.613 -69.415 622.675 -70.5907 628.533 -71.7242C634.324 -72.8473 640.311 -74.0071 646.094 -74.0071C651.643 -74.0071 656.474 -72.9288 660.865 -70.7117C671.527 -65.3227 676.011 -58.069 680.351 -51.0546C686.005 -41.9073 691.346 -33.2675 708.952 -29.2278C745.787 -20.7748 755.883 -11.9457 780.272 9.38931C783.416 12.1404 786.795 15.0939 790.497 18.2789C799.276 25.8351 805.761 34.459 812.027 42.799C817.619 50.2394 823.405 57.9349 830.845 64.9598C840.002 73.6021 848.626 77.4473 856.965 81.1662C868.083 86.1212 878.578 90.8027 888.103 106.838L889.589 109.352C901.57 129.67 913.683 148.469 921.126 148.469C922.322 148.469 923.355 148.009 924.2 147.102C926.885 144.222 927.609 136.566 926.421 123.697C925.724 116.154 920.166 109.416 914.791 102.896C908.995 95.8682 903.52 89.2273 903.847 81.8921C904.239 73.0945 909.665 68.7655 915.405 64.1839C919.611 60.8306 923.956 57.3615 926.501 51.991C932.614 39.0879 934.097 27.5288 935.527 16.3537C937.523 0.796936 939.403 -13.8972 953.605 -30.5218C979.017 -60.2651 1014.66 -82.7336 1053.98 -93.7904C1067.07 -97.4725 1079.19 -99.2635 1091.03 -99.2635C1131.2 -99.2635 1160.02 -77.8391 1190.53 -55.1575C1193.99 -52.588 1197.48 -50.0052 1201 -47.4278V-49.7264C1197.86 -52.0277 1194.75 -54.3317 1191.67 -56.6225C1160.9 -79.4987 1131.83 -101.105 1091.03 -101.105C1079.02 -101.105 1066.73 -99.2899 1053.46 -95.5604C1013.79 -84.4037 977.815 -61.7248 952.162 -31.7027C937.608 -14.6652 935.693 0.289307 933.666 16.1223C932.252 27.1606 930.79 38.5724 924.798 51.2151C922.438 56.2017 918.262 59.534 914.222 62.7558C908.41 67.3926 902.402 72.1872 901.972 81.8105C901.613 89.8427 907.57 97.0675 913.329 104.053C918.53 110.357 923.902 116.877 924.551 123.863C925.949 139.001 924.377 144.18 922.813 145.86C922.325 146.384 921.789 146.628 921.126 146.628C913.739 146.628 897.957 119.862 891.217 108.432L889.725 105.91C879.9 89.3694 869.137 84.5721 857.743 79.4909C849.548 75.8351 841.073 72.0557 832.149 63.6342C824.821 56.7172 819.084 49.0874 813.54 41.7075C807.21 33.2887 800.668 24.5832 791.733 16.8955C788.04 13.7158 784.663 10.7622 781.522 8.01382C756.88 -13.5395 746.68 -22.4606 709.381 -31.0215C692.545 -34.885 687.4 -43.2013 681.955 -52.0093C677.481 -59.242 672.86 -66.7219 661.723 -72.3475C657.061 -74.7041 651.949 -75.8482 646.094 -75.8482C640.129 -75.8482 634.048 -74.6699 628.171 -73.5311C622.396 -72.4107 616.431 -71.2561 610.688 -71.2561C602.615 -71.2561 596.092 -73.5337 590.153 -78.4256C585.5 -82.2602 583.349 -89.0747 581.267 -95.6683C579.599 -100.955 577.871 -106.423 574.838 -110.468C572.177 -114.021 567.647 -116.267 563.267 -118.439C558.055 -121.025 553.133 -123.465 551.285 -127.831C547.039 -137.86 547.181 -146.313 551.709 -152.961C562.508 -168.826 595.378 -172.156 621.05 -172.156C635.067 -172.156 646.432 -171.127 650.667 -170.683C659.285 -169.783 669.907 -167.698 681.148 -165.491C700.382 -161.712 722.18 -157.432 741.771 -157.432C758.688 -157.435 771.49 -160.604 780.916 -167.13C804.388 -183.402 797.655 -207.945 791.143 -231.679C784.188 -257.033 777 -283.249 805.911 -300.358C809.377 -302.409 814.012 -303.448 819.682 -303.448C836.969 -303.448 861.326 -294.18 884.881 -285.216C905.392 -277.413 924.769 -270.038 937.372 -269.749C939.188 -269.707 940.993 -269.686 942.812 -269.686H942.831C969.924 -269.689 997.312 -274.267 1023.8 -278.696C1050.23 -283.12 1077.57 -287.691 1104.57 -287.691C1123.45 -287.691 1140.5 -285.487 1156.68 -280.958C1171.65 -276.769 1186.42 -271.238 1201 -264.91V-266.914C1186.59 -273.137 1172 -278.583 1157.2 -282.728C1140.85 -287.307 1123.63 -289.532 1104.57 -289.532C1077.42 -289.532 1050 -284.945 1023.48 -280.511C997.071 -276.095 969.763 -271.527 942.831 -271.527C940.993 -271.469 939.223 -271.548 937.413 -271.59C925.139 -271.871 905.913 -279.188 885.557 -286.934C861.844 -295.958 837.323 -305.289 819.682 -305.289C813.58 -305.289 808.757 -304.192 804.943 -301.933C774.816 -284.109 782.195 -257.212 789.332 -231.2C795.966 -207.012 802.234 -184.164 779.829 -168.634Z" fill="#E0E0E0"/>
</g>
</svg>
